<svg width="828" height="586" viewBox="0 0 828 586" fill="none" xmlns="http://www.w3.org/2000/svg">
<g clip-path="url(#clip0_303_1437)">
<mask id="mask0_303_1437" style="mask-type:luminance" maskUnits="userSpaceOnUse" x="64" y="357" width="364" height="172">
<path d="M428 357H64V528.536H428V357Z" fill="white"/>
</mask>
<g mask="url(#mask0_303_1437)">
<path d="M64.3958 523.771C64.3958 525.98 66.1867 527.771 68.3958 527.771H423.313C425.522 527.771 427.312 525.98 427.312 523.771V492.953C427.312 490.744 425.522 488.953 423.313 488.953H397.682C395.473 488.953 393.682 487.162 393.682 484.953V418.583C393.682 416.374 391.891 414.583 389.682 414.583H356.958C354.749 414.583 352.958 416.374 352.958 418.583V428.156C352.958 430.365 351.167 432.156 348.958 432.156H322.859C320.65 432.156 318.859 430.365 318.859 428.156V361.052C318.859 358.843 317.069 357.052 314.859 357.052H274.083C271.874 357.052 270.083 358.843 270.083 361.052V428.156C270.083 430.365 268.292 432.156 266.083 432.156H239.036C236.827 432.156 235.036 433.947 235.036 436.156V469.292C235.036 471.501 233.246 473.292 231.036 473.292H202.573C200.364 473.292 198.573 471.501 198.573 469.292V376.828C198.573 374.619 196.782 372.828 194.573 372.828H163.734C161.525 372.828 159.734 374.619 159.734 376.828V452.135C159.734 454.345 157.944 456.135 155.734 456.135H131.057C128.848 456.135 127.057 457.926 127.057 460.135V479.906C127.057 482.115 125.266 483.906 123.057 483.906H108.802C106.593 483.906 104.802 482.115 104.802 479.906V422.823C104.802 420.614 103.011 418.823 100.802 418.823H68.3958C66.1867 418.823 64.3958 420.614 64.3958 422.823V523.771Z" fill="#B2C1DA"/>
</g>
<path d="M95.0156 520.453C96.6725 520.453 98.0156 519.11 98.0156 517.453V449.078C98.0156 447.421 99.3588 446.078 101.016 446.078H135.745C137.402 446.078 138.745 447.421 138.745 449.078V460.651C138.745 462.308 140.088 463.651 141.745 463.651H169.844C171.501 463.651 172.844 462.308 172.844 460.651V391.552C172.844 389.895 174.187 388.552 175.844 388.552H218.62C220.277 388.552 221.62 389.895 221.62 391.552V460.651C221.62 462.308 222.963 463.651 224.62 463.651H253.667C255.324 463.651 256.667 464.994 256.667 466.651V501.792C256.667 503.448 258.01 504.792 259.667 504.792H290.13C291.787 504.792 293.13 503.448 293.13 501.792V407.323C293.13 405.666 294.473 404.323 296.13 404.323H328.964C330.62 404.323 331.964 405.666 331.964 407.323V484.63C331.964 486.287 333.307 487.63 334.964 487.63H361.646C363.303 487.63 364.646 488.973 364.646 490.63V512.401C364.646 514.058 365.989 515.401 367.646 515.401H383.901C385.558 515.401 386.901 514.058 386.901 512.401V453.318C386.901 451.661 388.244 450.318 389.901 450.318H424.313C425.969 450.318 427.312 451.661 427.312 453.318V556.266C427.312 557.922 425.969 559.266 424.312 559.266H67.3958C65.739 559.266 64.3958 557.922 64.3958 556.266V523.453C64.3958 521.796 65.739 520.453 67.3958 520.453H95.0156Z" fill="#5A8BD9"/>
<path d="M415.474 481.63H423.37V458.495H415.474V481.63Z" fill="#84B0F4"/>
<path d="M403.162 481.63H411.057V458.495H403.162V481.63Z" fill="#84B0F4"/>
<path d="M390.849 481.63H398.74V458.495H390.849V481.63Z" fill="#84B0F4"/>
<path d="M415.474 513.396H423.37V490.255H415.474V513.396Z" fill="#84B0F4"/>
<path d="M403.162 513.396H411.057V490.255H403.162V513.396Z" fill="#84B0F4"/>
<path d="M390.849 513.396H398.74V490.255H390.849V513.396Z" fill="#84B0F4"/>
<path d="M415.474 545.161H423.37V522.021H415.474V545.161Z" fill="#84B0F4"/>
<path d="M403.162 545.161H411.057V522.021H403.162V545.161Z" fill="#84B0F4"/>
<path d="M390.849 545.161H398.74V522.021H390.849V545.161Z" fill="#84B0F4"/>
<path d="M381.922 527.49H387.693V523.078H381.922V527.49Z" fill="#84B0F4"/>
<path d="M373.682 527.49H379.448V523.078H373.682V527.49Z" fill="#84B0F4"/>
<path d="M365.432 527.49H371.203V523.078H365.432V527.49Z" fill="#84B0F4"/>
<path d="M381.922 536.75H387.693V532.328H381.922V536.75Z" fill="#84B0F4"/>
<path d="M373.682 536.75H379.448V532.328H373.682V536.75Z" fill="#84B0F4"/>
<path d="M365.432 536.75H371.203V532.328H365.432V536.75Z" fill="#84B0F4"/>
<path d="M381.922 546.005H387.693V541.589H381.922V546.005Z" fill="#84B0F4"/>
<path d="M373.682 546.005H379.448V541.589H373.682V546.005Z" fill="#84B0F4"/>
<path d="M365.432 546.005H371.203V541.589H365.432V546.005Z" fill="#84B0F4"/>
<path d="M323.755 464.594H327.229V413.052H323.755V464.594Z" fill="#84B0F4"/>
<path d="M315.234 464.594H318.708V413.052H315.234V464.594Z" fill="#84B0F4"/>
<path d="M306.708 464.594H310.182V413.052H306.708V464.594Z" fill="#84B0F4"/>
<path d="M298.187 464.594H301.656V413.052H298.187V464.594Z" fill="#84B0F4"/>
<path d="M323.755 526.651H327.229V475.109H323.755V526.651Z" fill="#84B0F4"/>
<path d="M315.234 526.651H318.708V475.109H315.234V526.651Z" fill="#84B0F4"/>
<path d="M306.708 526.651H310.182V475.109H306.708V526.651Z" fill="#84B0F4"/>
<path d="M298.187 526.651H301.656V475.109H298.187V526.651Z" fill="#84B0F4"/>
<path d="M354.698 504.354H361.172V495.724H354.698V504.354Z" fill="#84B0F4"/>
<path d="M343.807 504.354H350.281V495.724H343.807V504.354Z" fill="#84B0F4"/>
<path d="M332.917 504.354H339.385V495.724H332.917V504.354Z" fill="#84B0F4"/>
<path d="M354.698 518.026H361.172V509.401H354.698V518.026Z" fill="#84B0F4"/>
<path d="M343.807 518.026H350.281V509.401H343.807V518.026Z" fill="#84B0F4"/>
<path d="M332.917 518.026H339.385V509.401H332.917V518.026Z" fill="#84B0F4"/>
<path d="M354.698 531.703H361.172V523.078H354.698V531.703Z" fill="#84B0F4"/>
<path d="M343.807 531.703H350.281V523.078H343.807V531.703Z" fill="#84B0F4"/>
<path d="M332.917 531.703H339.385V523.078H332.917V531.703Z" fill="#84B0F4"/>
<path d="M354.698 545.375H361.172V536.75H354.698V545.375Z" fill="#84B0F4"/>
<path d="M343.807 545.375H350.281V536.75H343.807V545.375Z" fill="#84B0F4"/>
<path d="M332.917 545.375H339.385V536.75H332.917V545.375Z" fill="#84B0F4"/>
<path d="M257.141 514.87H291.557V510.87H257.141V514.87Z" fill="#84B0F4"/>
<path d="M257.141 523.078H291.557V519.078H257.141V523.078Z" fill="#84B0F4"/>
<path d="M257.141 531.276H291.557V527.281H257.141V531.276Z" fill="#84B0F4"/>
<path d="M257.141 539.484H291.557V535.484H257.141V539.484Z" fill="#84B0F4"/>
<path d="M257.141 547.688H291.557V543.688H257.141V547.688Z" fill="#84B0F4"/>
<path d="M213.411 429.458H217.516V399.589H213.411V429.458Z" fill="#84B0F4"/>
<path d="M206.151 429.458H210.255V399.589H206.151V429.458Z" fill="#84B0F4"/>
<path d="M198.891 429.458H202.995V399.589H198.891V429.458Z" fill="#84B0F4"/>
<path d="M191.63 429.458H195.734V399.589H191.63V429.458Z" fill="#84B0F4"/>
<path d="M184.37 429.458H188.469V399.589H184.37V429.458Z" fill="#84B0F4"/>
<path d="M177.104 429.458H181.208V399.589H177.104V429.458Z" fill="#84B0F4"/>
<path d="M213.411 465.646H217.516V435.771H213.411V465.646Z" fill="#84B0F4"/>
<path d="M206.151 465.646H210.255V435.771H206.151V465.646Z" fill="#84B0F4"/>
<path d="M198.891 465.646H202.995V435.771H198.891V465.646Z" fill="#84B0F4"/>
<path d="M191.63 465.646H195.734V435.771H191.63V465.646Z" fill="#84B0F4"/>
<path d="M184.37 465.646H188.469V435.771H184.37V465.646Z" fill="#84B0F4"/>
<path d="M177.104 465.646H181.208V435.771H177.104V465.646Z" fill="#84B0F4"/>
<path d="M213.411 501.828H217.516V471.958H213.411V501.828Z" fill="#84B0F4"/>
<path d="M206.151 501.828H210.255V471.958H206.151V501.828Z" fill="#84B0F4"/>
<path d="M198.891 501.828H202.995V471.958H198.891V501.828Z" fill="#84B0F4"/>
<path d="M191.63 501.828H195.734V471.958H191.63V501.828Z" fill="#84B0F4"/>
<path d="M184.37 501.828H188.469V471.958H184.37V501.828Z" fill="#84B0F4"/>
<path d="M177.104 501.828H181.208V471.958H177.104V501.828Z" fill="#84B0F4"/>
<path d="M213.411 538.016H217.516V508.135H213.411V538.016Z" fill="#84B0F4"/>
<path d="M206.151 538.016H210.255V508.135H206.151V538.016Z" fill="#84B0F4"/>
<path d="M198.891 538.016H202.995V508.135H198.891V538.016Z" fill="#84B0F4"/>
<path d="M191.63 538.016H195.734V508.135H191.63V538.016Z" fill="#84B0F4"/>
<path d="M184.37 538.016H188.469V508.135H184.37V538.016Z" fill="#84B0F4"/>
<path d="M177.104 538.016H181.208V508.135H177.104V538.016Z" fill="#84B0F4"/>
<path d="M245.458 482.531H251.932V473.911H245.458V482.531Z" fill="#84B0F4"/>
<path d="M234.724 482.531H241.198V473.911H234.724V482.531Z" fill="#84B0F4"/>
<path d="M222.885 482.531H229.359V473.911H222.885V482.531Z" fill="#84B0F4"/>
<path d="M245.458 497.26H251.932V488.63H245.458V497.26Z" fill="#84B0F4"/>
<path d="M234.724 497.26H241.198V488.63H234.724V497.26Z" fill="#84B0F4"/>
<path d="M222.885 497.26H229.359V488.63H222.885V497.26Z" fill="#84B0F4"/>
<path d="M245.458 511.984H251.932V503.359H245.458V511.984Z" fill="#84B0F4"/>
<path d="M234.724 511.984H241.198V503.359H234.724V511.984Z" fill="#84B0F4"/>
<path d="M222.885 511.984H229.359V503.359H222.885V511.984Z" fill="#84B0F4"/>
<path d="M245.458 526.708H251.932V518.083H245.458V526.708Z" fill="#84B0F4"/>
<path d="M234.724 526.708H241.198V518.083H234.724V526.708Z" fill="#84B0F4"/>
<path d="M222.885 526.708H229.359V518.083H222.885V526.708Z" fill="#84B0F4"/>
<path d="M245.458 541.438H251.932V532.807H245.458V541.438Z" fill="#84B0F4"/>
<path d="M234.724 541.438H241.198V532.807H234.724V541.438Z" fill="#84B0F4"/>
<path d="M222.885 541.438H229.359V532.807H222.885V541.438Z" fill="#84B0F4"/>
<path d="M167.161 483.948H172.526V471.958H167.161V483.948Z" fill="#84B0F4"/>
<path d="M158.161 483.948H163.526V471.958H158.161V483.948Z" fill="#84B0F4"/>
<path d="M149.161 483.948H154.531V471.958H149.161V483.948Z" fill="#84B0F4"/>
<path d="M140.167 483.948H145.536V471.958H140.167V483.948Z" fill="#84B0F4"/>
<path d="M167.161 501.828H172.526V489.839H167.161V501.828Z" fill="#84B0F4"/>
<path d="M158.161 501.828H163.526V489.839H158.161V501.828Z" fill="#84B0F4"/>
<path d="M149.161 501.828H154.531V489.839H149.161V501.828Z" fill="#84B0F4"/>
<path d="M140.167 501.828H145.536V489.839H140.167V501.828Z" fill="#84B0F4"/>
<path d="M167.161 519.708H172.526V507.719H167.161V519.708Z" fill="#84B0F4"/>
<path d="M158.161 519.708H163.526V507.719H158.161V519.708Z" fill="#84B0F4"/>
<path d="M149.161 519.708H154.531V507.719H149.161V519.708Z" fill="#84B0F4"/>
<path d="M140.167 519.708H145.536V507.719H140.167V519.708Z" fill="#84B0F4"/>
<path d="M167.161 537.588H172.526V525.599H167.161V537.588Z" fill="#84B0F4"/>
<path d="M158.161 537.588H163.526V525.599H158.161V537.588Z" fill="#84B0F4"/>
<path d="M149.161 537.588H154.531V525.599H149.161V537.588Z" fill="#84B0F4"/>
<path d="M140.167 537.588H145.536V525.599H140.167V537.588Z" fill="#84B0F4"/>
<path d="M100.859 458.599H135.271V454.177H100.859V458.599Z" fill="#84B0F4"/>
<path d="M100.859 468.693H135.271V464.276H100.859V468.693Z" fill="#84B0F4"/>
<path d="M100.859 478.792H135.271V474.375H100.859V478.792Z" fill="#84B0F4"/>
<path d="M100.859 488.891H135.271V484.474H100.859V488.891Z" fill="#84B0F4"/>
<path d="M100.859 498.984H135.271V494.568H100.859V498.984Z" fill="#84B0F4"/>
<path d="M100.859 509.083H135.271V504.667H100.859V509.083Z" fill="#84B0F4"/>
<path d="M100.859 519.182H135.271V514.766H100.859V519.182Z" fill="#84B0F4"/>
<path d="M100.859 529.281H135.271V524.865H100.859V529.281Z" fill="#84B0F4"/>
<path d="M100.859 539.375H135.271V534.964H100.859V539.375Z" fill="#84B0F4"/>
<path d="M88.2291 537.589H96.1198V527.073H88.2291V537.589Z" fill="#84B0F4"/>
<path d="M77.0208 537.589H84.9166V527.073H77.0208V537.589Z" fill="#84B0F4"/>
<path d="M65.8125 537.589H73.7031V527.073H65.8125V537.589Z" fill="#84B0F4"/>
<path d="M287.021 506.234C287.578 514.531 295.448 521.276 305.828 521.276C316.219 521.276 324.635 514.536 324.635 506.234C324.635 496.172 316.219 473.271 305.828 473.271C295.448 473.271 286.427 497.271 287.021 506.234Z" fill="#568D2D"/>
<path d="M300.771 517.437C311.162 517.437 319.578 510.703 319.578 502.396C319.578 495.094 315.146 481.026 308.74 473.865C317.745 477.521 324.635 497.125 324.635 506.234C324.635 514.536 316.219 521.276 305.828 521.276C299.615 521.276 294.302 518.854 290.917 515.135C293.75 516.588 297.099 517.437 300.771 517.437Z" fill="#4A742B"/>
<path d="M297.76 510.62L297.979 510.708L297.984 510.719C297.984 510.719 298.047 510.87 298.161 511.13C298.219 511.26 298.281 511.417 298.359 511.599C298.437 511.776 298.557 511.969 298.677 512.182C298.74 512.292 298.802 512.401 298.859 512.516C298.932 512.63 299.021 512.745 299.099 512.865C299.266 513.094 299.422 513.349 299.641 513.583C299.854 513.823 300.047 514.083 300.297 514.313C300.531 514.557 300.771 514.797 301.047 515.016C301.182 515.13 301.312 515.25 301.448 515.354C301.588 515.464 301.729 515.563 301.87 515.672C302.135 515.885 302.443 516.063 302.719 516.25C303.01 516.422 303.281 516.599 303.562 516.745C303.833 516.891 304.094 517.031 304.349 517.146C304.547 517.24 304.734 517.323 304.906 517.396L305.318 511.135C305.328 510.938 305.531 510.766 305.792 510.755C306.068 510.745 306.307 510.917 306.323 511.135L306.557 514.729H306.562C306.708 514.724 306.88 514.682 307.062 514.651C307.24 514.604 307.437 514.563 307.641 514.484C307.844 514.417 308.042 514.313 308.255 514.214C308.359 514.156 308.453 514.094 308.552 514.037C308.661 513.969 308.766 513.912 308.854 513.833C309.042 513.688 309.245 513.537 309.406 513.365L309.667 513.109L310.115 512.557L310.302 512.276C310.411 512.083 310.557 511.917 310.635 511.729C310.729 511.552 310.818 511.375 310.896 511.219C310.984 511.063 311.031 510.912 311.083 510.776C311.135 510.646 311.177 510.531 311.219 510.432C311.297 510.24 311.338 510.13 311.338 510.13L311.344 510.12L311.542 510.026L311.677 510.188C311.677 510.188 311.651 510.302 311.599 510.505C311.573 510.604 311.536 510.724 311.505 510.87C311.463 511.01 311.437 511.172 311.365 511.344C311.307 511.51 311.24 511.698 311.167 511.891C311.104 512.089 310.984 512.287 310.891 512.495C310.838 512.604 310.781 512.703 310.729 512.818C310.661 512.917 310.594 513.026 310.526 513.13C310.458 513.234 310.391 513.344 310.318 513.448L310.068 513.755C309.906 513.964 309.703 514.151 309.5 514.344C309.406 514.438 309.297 514.526 309.182 514.604C309.073 514.688 308.963 514.771 308.849 514.849C308.609 514.99 308.385 515.141 308.135 515.245C307.901 515.365 307.651 515.438 307.427 515.521C307.193 515.583 306.979 515.651 306.781 515.677L306.62 515.703L308.406 542.938H303.229L304.838 518.359C304.552 518.224 304.193 518.057 303.797 517.839C303.536 517.703 303.276 517.537 302.99 517.37C302.708 517.198 302.432 517 302.141 516.797C301.87 516.583 301.557 516.385 301.292 516.141C301.151 516.026 301.01 515.906 300.875 515.787C300.74 515.667 300.615 515.537 300.484 515.412C300.219 515.167 299.984 514.896 299.75 514.63C299.505 514.375 299.323 514.094 299.125 513.839C298.922 513.578 298.776 513.302 298.62 513.057C298.552 512.927 298.469 512.807 298.406 512.688C298.349 512.563 298.292 512.443 298.24 512.333C298.135 512.104 298.026 511.896 297.958 511.708C297.896 511.521 297.838 511.349 297.792 511.219C297.698 510.943 297.646 510.792 297.646 510.792L297.76 510.62Z" fill="#784824"/>
<path d="M263.26 514.297C263.646 520.021 269.078 524.682 276.255 524.682C283.432 524.682 289.245 520.037 289.245 514.297C289.245 507.344 283.432 491.526 276.255 491.526C269.078 491.526 262.849 508.104 263.26 514.297Z" fill="#458E30"/>
<path d="M272.76 522.037C279.932 522.037 285.755 517.38 285.755 511.646C285.755 506.604 282.688 496.885 278.266 491.932C284.49 494.458 289.245 508.01 289.245 514.297C289.245 520.037 283.432 524.682 276.255 524.682C271.964 524.682 268.292 523.01 265.953 520.443C267.906 521.453 270.224 522.037 272.76 522.037Z" fill="#386C2D"/>
<path d="M270.677 517.323L270.828 517.385L270.833 517.391C270.833 517.391 270.875 517.495 270.953 517.677C270.995 517.766 271.042 517.875 271.094 518C271.146 518.125 271.234 518.255 271.318 518.406L271.443 518.635L271.604 518.87C271.724 519.037 271.828 519.208 271.979 519.37C272.125 519.537 272.26 519.719 272.432 519.875C272.594 520.042 272.766 520.208 272.948 520.365L273.229 520.599L273.516 520.813C273.703 520.964 273.917 521.083 274.104 521.214C274.302 521.333 274.495 521.453 274.688 521.557C274.875 521.656 275.057 521.75 275.234 521.833C275.37 521.896 275.495 521.958 275.615 522.005L275.901 517.682C275.906 517.542 276.047 517.422 276.229 517.417C276.422 517.412 276.583 517.531 276.594 517.682L276.755 520.167H276.76C276.859 520.156 276.974 520.13 277.104 520.109C277.229 520.078 277.365 520.047 277.505 519.99C277.646 519.948 277.781 519.875 277.927 519.807L278.141 519.682L278.339 519.542C278.474 519.443 278.609 519.344 278.724 519.219L278.906 519.047L279.063 518.854L279.214 518.667L279.339 518.469C279.422 518.339 279.521 518.219 279.573 518.094C279.641 517.964 279.698 517.849 279.75 517.74C279.813 517.63 279.844 517.526 279.885 517.432L279.979 517.198C280.031 517.063 280.057 516.99 280.057 516.99L280.063 516.979L280.198 516.917L280.292 517.026C280.292 517.026 280.271 517.104 280.24 517.245L280.172 517.495C280.151 517.594 280.125 517.703 280.078 517.823C280.037 517.938 279.99 518.068 279.938 518.203C279.896 518.339 279.818 518.474 279.75 518.62L279.641 518.844L279.5 519.057L279.354 519.276L279.177 519.49C279.068 519.635 278.932 519.771 278.787 519.896L278.573 520.078L278.339 520.25C278.172 520.344 278.021 520.448 277.844 520.516C277.688 520.604 277.516 520.656 277.359 520.708C277.198 520.75 277.047 520.797 276.912 520.823L276.797 520.839L278.031 539.651H274.458L275.568 522.672C275.375 522.583 275.125 522.464 274.849 522.313C274.672 522.214 274.49 522.104 274.292 521.984C274.099 521.87 273.906 521.729 273.703 521.594C273.516 521.443 273.302 521.307 273.12 521.141L272.828 520.891L272.563 520.635C272.375 520.464 272.214 520.276 272.057 520.099C271.891 519.917 271.76 519.724 271.625 519.547C271.484 519.37 271.385 519.177 271.271 519.01L271.13 518.75L271.01 518.51C270.938 518.349 270.865 518.208 270.818 518.078C270.771 517.948 270.729 517.828 270.703 517.74C270.635 517.547 270.604 517.443 270.604 517.443L270.677 517.323Z" fill="#784824"/>
<path d="M401 579C401 579 259.143 480 112 579H401Z" fill="#335E13"/>
<path d="M320 602C320 602 120.229 462.5 -87 602H320Z" fill="#396A15"/>
<path d="M621 574C621 574 489.456 481.75 353 574H621Z" fill="#457522"/>
<path d="M775 574C775 574 651.3 490.75 523 574H775Z" fill="#5D8E3A"/>
<path d="M169 598C169 598 31.5655 503.5 -111 598H169Z" fill="#396A15"/>
<path d="M627.5 568.5C627.5 568.5 508 454.5 284 593L627.5 568.5Z" fill="#457522"/>
<path d="M588 600C588 600 333.5 473.5 256 600H588Z" fill="#4B7F25"/>
<path d="M863 614.134C863 614.134 610.827 410.377 355 619L863 614.134Z" fill="#5D8E3A"/>
<path d="M367.12 487.109C368.198 507.271 383.495 523.667 403.698 523.667C423.896 523.667 440.271 507.302 440.271 487.109C440.271 462.656 423.896 407 403.698 407C383.495 407 365.958 465.333 367.12 487.109Z" fill="#64A336"/>
<path d="M393.865 513.594C414.063 513.594 430.438 497.224 430.438 477.031C430.438 459.286 421.807 425.104 409.354 407.688C426.87 416.568 440.271 464.234 440.271 486.359C440.271 506.552 423.896 522.917 403.698 522.917C391.604 522.917 381.276 517.042 374.693 508C380.198 511.536 386.719 513.594 393.865 513.594Z" fill="#558235"/>
<path d="M388 497.776C388.172 497.708 388.365 497.807 388.427 497.984L388.432 498.016C388.432 498.016 388.557 498.375 388.776 499.01C388.885 499.328 389.016 499.708 389.167 500.146C389.313 500.589 389.563 501.052 389.787 501.578C389.901 501.833 390.026 502.109 390.151 502.385C390.276 502.661 390.453 502.932 390.604 503.219C390.938 503.781 391.234 504.401 391.656 504.974C392.063 505.557 392.443 506.187 392.932 506.75C393.396 507.333 393.865 507.927 394.396 508.464C394.656 508.734 394.901 509.021 395.172 509.281C395.448 509.542 395.719 509.792 395.99 510.047C396.51 510.568 397.104 511 397.641 511.458C398.203 511.88 398.74 512.302 399.281 512.656C399.818 513.021 400.323 513.354 400.813 513.635C401.198 513.865 401.557 514.068 401.891 514.245L402.693 499.026C402.719 498.536 403.115 498.125 403.62 498.099C404.162 498.068 404.62 498.49 404.646 499.026L405.104 507.766L405.109 507.76C405.401 507.74 405.729 507.651 406.089 507.573C406.438 507.453 406.828 507.354 407.214 507.161C407.615 507.005 407.995 506.74 408.406 506.505C408.604 506.375 408.792 506.214 408.995 506.068C409.193 505.922 409.396 505.766 409.573 505.578C409.943 505.224 410.328 504.865 410.651 504.437L411.156 503.823C411.302 503.599 411.448 503.375 411.594 503.151C411.74 502.927 411.885 502.708 412.026 502.49C412.151 502.26 412.271 502.026 412.391 501.802C412.609 501.339 412.885 500.917 413.037 500.469C413.219 500.026 413.385 499.615 413.542 499.229C413.714 498.849 413.802 498.474 413.912 498.156C414.016 497.828 414.104 497.547 414.177 497.312C414.318 496.849 414.401 496.583 414.401 496.583L414.412 496.552C414.464 496.391 414.63 496.292 414.802 496.328C414.984 496.365 415.099 496.542 415.068 496.724C415.068 496.724 415.01 497.005 414.906 497.495C414.859 497.734 414.802 498.036 414.734 498.375C414.656 498.719 414.599 499.109 414.464 499.521C414.344 499.937 414.208 500.385 414.073 500.859C413.953 501.344 413.719 501.823 413.531 502.333C413.427 502.589 413.323 502.844 413.219 503.109C413.089 503.354 412.958 503.615 412.823 503.87C412.693 504.13 412.557 504.385 412.417 504.651L411.927 505.396C411.615 505.906 411.224 506.365 410.833 506.818C410.651 507.052 410.432 507.26 410.214 507.458C409.995 507.661 409.787 507.87 409.563 508.052C409.099 508.401 408.662 508.76 408.177 509.01C407.714 509.302 407.24 509.495 406.802 509.687C406.344 509.839 405.927 509.995 405.542 510.068C405.432 510.094 405.328 510.115 405.234 510.135L408.698 576.328H398.641L401.771 516.589C401.203 516.26 400.51 515.844 399.74 515.307C399.24 514.979 398.719 514.589 398.177 514.172C397.63 513.76 397.089 513.281 396.521 512.792C395.984 512.276 395.391 511.781 394.87 511.193C394.599 510.906 394.328 510.62 394.063 510.333C393.797 510.036 393.552 509.724 393.297 509.417C392.776 508.818 392.323 508.167 391.875 507.526C391.406 506.901 391.042 506.219 390.656 505.589C390.255 504.964 389.984 504.297 389.677 503.687C389.531 503.38 389.38 503.094 389.26 502.797C389.146 502.495 389.037 502.208 388.932 501.932C388.734 501.375 388.516 500.88 388.385 500.422C388.266 499.958 388.151 499.552 388.063 499.224C387.88 498.562 387.781 498.182 387.781 498.182C387.734 498.01 387.828 497.828 388 497.776Z" fill="#784824"/>
<path d="M335.714 513.943C336.458 527.875 347.021 539.203 360.979 539.203C374.932 539.203 386.245 527.896 386.245 513.943C386.245 497.057 374.932 458.609 360.979 458.609C347.021 458.609 334.912 498.906 335.714 513.943Z" fill="#509B3A"/>
<path d="M354.182 532.761C368.141 532.761 379.453 521.453 379.453 507.51C379.453 495.245 373.49 471.63 364.885 459.604C376.984 465.74 386.245 498.667 386.245 513.943C386.245 527.896 374.932 539.203 360.979 539.203C352.63 539.203 345.495 535.141 340.948 528.896C344.75 531.344 349.255 532.761 354.182 532.761Z" fill="#447B38"/>
<path d="M350.13 521.318C350.255 521.276 350.391 521.339 350.432 521.464L350.438 521.484C350.438 521.484 350.526 521.729 350.677 522.167C350.745 522.385 350.839 522.651 350.938 522.953C351.047 523.255 351.214 523.583 351.365 523.943C351.448 524.12 351.536 524.307 351.625 524.505C351.714 524.693 351.828 524.88 351.938 525.078C352.167 525.464 352.37 525.896 352.661 526.292C352.943 526.693 353.203 527.125 353.542 527.516C353.865 527.917 354.182 528.323 354.552 528.698C354.734 528.885 354.906 529.083 355.089 529.266C355.281 529.443 355.469 529.615 355.656 529.792C356.016 530.156 356.427 530.448 356.792 530.771C357.188 531.062 357.557 531.349 357.932 531.594C358.297 531.844 358.646 532.078 358.984 532.271C359.255 532.432 359.505 532.568 359.734 532.693L360.286 522.177C360.307 521.839 360.578 521.557 360.927 521.536C361.297 521.521 361.615 521.807 361.635 522.177L361.953 528.214H361.964C362.156 528.203 362.385 528.135 362.63 528.083C362.87 528.005 363.141 527.932 363.406 527.797C363.688 527.693 363.943 527.51 364.234 527.349C364.375 527.25 364.5 527.146 364.635 527.042C364.776 526.943 364.917 526.839 365.042 526.703C365.292 526.464 365.563 526.214 365.781 525.917L366.135 525.49C366.234 525.339 366.333 525.182 366.438 525.031C366.536 524.875 366.641 524.724 366.734 524.573C366.818 524.411 366.906 524.25 366.984 524.099C367.141 523.776 367.328 523.49 367.432 523.177C367.557 522.87 367.672 522.583 367.781 522.323C367.901 522.057 367.964 521.797 368.036 521.578C368.104 521.354 368.167 521.156 368.219 521C368.313 520.677 368.375 520.49 368.375 520.49L368.38 520.474C368.417 520.359 368.526 520.292 368.646 520.318C368.776 520.339 368.859 520.464 368.833 520.589C368.833 520.589 368.792 520.781 368.724 521.12C368.693 521.292 368.646 521.495 368.599 521.729C368.552 521.964 368.51 522.24 368.417 522.521C368.333 522.807 368.24 523.12 368.146 523.448C368.068 523.781 367.906 524.109 367.771 524.464C367.698 524.641 367.63 524.818 367.557 525C367.469 525.172 367.38 525.344 367.286 525.526C367.193 525.703 367.099 525.885 367.005 526.062L366.667 526.578C366.448 526.932 366.182 527.25 365.906 527.562C365.781 527.729 365.635 527.87 365.479 528.005C365.328 528.146 365.188 528.286 365.031 528.417C364.708 528.656 364.406 528.901 364.073 529.078C363.755 529.276 363.427 529.411 363.125 529.542C362.807 529.651 362.521 529.755 362.25 529.807L362.036 529.849L364.438 575.578H357.49L359.651 534.307C359.255 534.089 358.776 533.797 358.24 533.427C357.901 533.203 357.542 532.927 357.167 532.641C356.786 532.354 356.411 532.026 356.021 531.687C355.651 531.328 355.24 530.99 354.88 530.583C354.693 530.385 354.51 530.187 354.323 529.99C354.135 529.786 353.969 529.568 353.797 529.359C353.438 528.943 353.125 528.49 352.813 528.052C352.49 527.62 352.24 527.151 351.974 526.714C351.698 526.281 351.51 525.823 351.297 525.401C351.198 525.187 351.089 524.99 351.01 524.786C350.932 524.578 350.854 524.38 350.781 524.187C350.646 523.802 350.49 523.464 350.406 523.141C350.318 522.823 350.245 522.547 350.177 522.318C350.052 521.859 349.984 521.599 349.984 521.599C349.953 521.479 350.016 521.354 350.13 521.318Z" fill="#784824"/>
<path d="M114.547 478.74C115.719 500.625 132.323 518.417 154.25 518.417C176.177 518.417 193.948 500.651 193.948 478.74C193.948 452.193 176.177 391.781 154.25 391.781C132.323 391.781 113.286 455.099 114.547 478.74Z" fill="#4CA336"/>
<path d="M143.573 508.297C165.495 508.297 183.271 490.531 183.271 468.62C183.271 449.354 173.906 412.25 160.385 393.349C179.396 402.99 193.948 454.724 193.948 478.74C193.948 500.651 176.177 518.417 154.25 518.417C141.125 518.417 129.911 512.036 122.771 502.229C128.74 506.068 135.823 508.297 143.573 508.297Z" fill="#398326"/>
<path d="M137.208 490.318C137.401 490.245 137.604 490.349 137.672 490.542L137.687 490.578C137.687 490.578 137.818 490.969 138.052 491.656C138.167 492 138.312 492.411 138.474 492.891C138.641 493.364 138.906 493.875 139.146 494.443C139.276 494.719 139.411 495.016 139.542 495.318C139.687 495.625 139.87 495.917 140.036 496.224C140.396 496.838 140.724 497.51 141.177 498.13C141.625 498.766 142.036 499.443 142.562 500.057C143.062 500.693 143.578 501.333 144.156 501.911C144.437 502.208 144.708 502.516 144.995 502.802C145.292 503.083 145.589 503.364 145.875 503.635C146.448 504.203 147.094 504.672 147.672 505.172C148.286 505.63 148.87 506.078 149.458 506.469C150.036 506.859 150.589 507.224 151.115 507.526C151.531 507.781 151.927 508 152.292 508.198L153.156 491.672C153.187 491.141 153.615 490.698 154.161 490.672C154.75 490.635 155.25 491.088 155.281 491.672L155.776 501.156H155.786C156.104 501.13 156.453 501.036 156.844 500.953C157.219 500.823 157.646 500.713 158.062 500.5C158.5 500.333 158.906 500.052 159.359 499.792C159.578 499.646 159.781 499.479 160 499.318C160.214 499.156 160.437 498.989 160.625 498.786C161.031 498.401 161.448 498.01 161.797 497.547L162.344 496.88C162.505 496.635 162.661 496.391 162.823 496.151C162.979 495.911 163.135 495.672 163.292 495.432C163.422 495.177 163.552 494.932 163.682 494.682C163.922 494.182 164.219 493.724 164.391 493.239C164.589 492.766 164.766 492.312 164.932 491.891C165.12 491.484 165.224 491.078 165.333 490.724C165.448 490.375 165.542 490.068 165.615 489.818C165.781 489.312 165.87 489.021 165.87 489.021L165.875 488.989C165.932 488.812 166.115 488.703 166.302 488.745C166.5 488.781 166.625 488.979 166.589 489.172C166.589 489.172 166.521 489.479 166.422 490.005C166.365 490.276 166.297 490.599 166.224 490.969C166.141 491.338 166.078 491.766 165.932 492.208C165.802 492.661 165.661 493.151 165.51 493.667C165.38 494.193 165.125 494.708 164.922 495.26C164.812 495.536 164.698 495.818 164.589 496.104C164.443 496.375 164.302 496.651 164.156 496.932C164.01 497.213 163.865 497.489 163.719 497.776L163.182 498.583C162.844 499.141 162.417 499.635 161.995 500.13C161.797 500.391 161.557 500.609 161.318 500.828C161.083 501.047 160.859 501.271 160.62 501.474C160.109 501.844 159.635 502.239 159.109 502.51C158.615 502.823 158.089 503.031 157.62 503.245C157.12 503.411 156.667 503.578 156.25 503.656C156.13 503.693 156.021 503.703 155.911 503.729L159.677 575.578H148.76L152.156 510.734C151.542 510.385 150.786 509.927 149.953 509.349C149.411 508.989 148.844 508.562 148.255 508.109C147.667 507.661 147.073 507.146 146.453 506.62C145.875 506.052 145.234 505.516 144.667 504.88C144.375 504.568 144.083 504.26 143.786 503.943C143.5 503.625 143.234 503.281 142.958 502.953C142.391 502.302 141.896 501.594 141.417 500.901C140.906 500.224 140.516 499.484 140.099 498.792C139.656 498.12 139.359 497.391 139.031 496.739C138.88 496.401 138.708 496.088 138.573 495.766C138.453 495.437 138.333 495.13 138.224 494.828C138.01 494.224 137.771 493.687 137.63 493.187C137.5 492.682 137.38 492.245 137.281 491.885C137.083 491.172 136.969 490.755 136.969 490.755C136.922 490.573 137.021 490.375 137.208 490.318Z" fill="#784824"/>
<path d="M58.75 536.25C59.151 543.75 64.8437 549.849 72.3541 549.849C79.8698 549.849 85.9635 543.76 85.9635 536.25C85.9635 527.151 79.8698 506.448 72.3541 506.448C64.8437 506.448 58.3125 528.151 58.75 536.25Z" fill="#94D32E"/>
<path d="M68.6979 546.38C76.2083 546.38 82.302 540.292 82.302 532.781C82.302 526.177 79.0937 513.464 74.4583 506.984C80.9739 510.286 85.9635 528.016 85.9635 536.25C85.9635 543.76 79.8698 549.849 72.3541 549.849C67.8593 549.849 64.0156 547.661 61.5677 544.302C63.6145 545.615 66.0416 546.38 68.6979 546.38Z" fill="#83AF30"/>
<path d="M66.5156 540.219L66.677 540.297L66.6823 540.307C66.6823 540.307 66.7239 540.443 66.8073 540.677C66.8437 540.792 66.8958 540.938 66.9479 541.099C67.0052 541.26 67.0989 541.438 67.1823 541.635C67.2239 541.729 67.2708 541.828 67.3177 541.932C67.3645 542.037 67.427 542.135 67.4843 542.24C67.6093 542.453 67.7187 542.688 67.8802 542.896C68.026 543.115 68.1666 543.349 68.3541 543.557C68.526 543.771 68.6979 543.995 68.8958 544.193C68.9948 544.292 69.0833 544.401 69.1875 544.495C69.2864 544.594 69.3854 544.688 69.4843 544.781C69.6823 544.974 69.9062 545.135 70.1041 545.307C70.3125 545.469 70.5104 545.62 70.7135 545.755C70.9114 545.885 71.1041 546.016 71.2812 546.115C71.427 546.203 71.5573 546.281 71.6875 546.344L71.9843 540.682C71.9895 540.5 72.1406 540.349 72.3281 540.339C72.5312 540.328 72.7031 540.484 72.7083 540.682L72.8802 543.932H72.8854C72.9895 543.922 73.1145 543.891 73.25 543.865C73.375 543.818 73.5208 543.781 73.6614 543.708C73.8125 543.651 73.9531 543.552 74.1093 543.469L74.3229 543.302L74.5416 543.12C74.6823 542.99 74.8281 542.854 74.9479 542.693L75.1302 542.469L75.2968 542.219L75.4531 541.969L75.5885 541.714C75.6718 541.542 75.7708 541.385 75.8281 541.219C75.901 541.057 75.9583 540.901 76.0208 540.755C76.0833 540.615 76.1145 540.479 76.1562 540.359C76.1927 540.234 76.2239 540.135 76.2552 540.042C76.3073 539.875 76.3385 539.776 76.3385 539.776L76.3437 539.76L76.4843 539.682L76.5885 539.828C76.5885 539.828 76.5625 539.927 76.526 540.115C76.5052 540.203 76.4843 540.313 76.4583 540.443C76.4323 540.568 76.4114 540.714 76.3593 540.865C76.3125 541.021 76.2656 541.188 76.2135 541.365C76.1718 541.542 76.0833 541.724 76.0156 541.912L75.901 542.203L75.7552 542.484L75.5989 542.776L75.4166 543.052C75.302 543.24 75.1562 543.412 75.0104 543.583L74.7812 543.823L74.5416 544.042C74.3645 544.167 74.2031 544.302 74.0208 544.396C73.8489 544.505 73.6718 544.573 73.5156 544.646C73.3437 544.708 73.1875 544.76 73.0416 544.792L72.927 544.813L74.2135 569.438H70.4739L71.6406 547.214C71.4323 547.094 71.1718 546.938 70.8854 546.74C70.6979 546.615 70.5052 546.474 70.302 546.318C70.0989 546.162 69.8958 545.984 69.6875 545.807C69.4843 545.609 69.2656 545.427 69.0729 545.208C68.9739 545.104 68.875 544.995 68.7708 544.891C68.6666 544.781 68.5781 544.662 68.4843 544.547C68.2916 544.328 68.1198 544.083 67.9583 543.844C67.7864 543.615 67.6458 543.359 67.5052 543.125C67.3541 542.891 67.2552 542.641 67.1406 542.417C67.0885 542.302 67.026 542.193 66.9843 542.089C66.9479 541.974 66.901 541.87 66.8645 541.76C66.7864 541.557 66.7135 541.375 66.6614 541.203C66.6145 541.031 66.5729 540.875 66.5416 540.755C66.4739 540.51 66.4323 540.37 66.4323 540.37L66.5156 540.219Z" fill="#784824"/>
<path d="M78.3907 508.682C79.198 523.797 90.6719 536.094 105.818 536.094C120.958 536.094 133.24 523.823 133.24 508.682C133.24 490.349 120.958 448.615 105.818 448.615C90.6719 448.615 77.5209 492.359 78.3907 508.682Z" fill="#509B3A"/>
<path d="M98.4375 529.104C113.583 529.104 125.865 516.833 125.865 501.693C125.865 488.385 119.396 462.755 110.052 449.698C123.188 456.354 133.24 492.094 133.24 508.682C133.24 523.823 120.958 536.094 105.818 536.094C96.75 536.094 89.0052 531.688 84.0677 524.912C88.198 527.563 93.0886 529.104 98.4375 529.104Z" fill="#447B38"/>
<path d="M94.0417 516.677C94.1771 516.63 94.3229 516.703 94.3698 516.839L94.375 516.865C94.375 516.865 94.4688 517.13 94.6302 517.604C94.7084 517.844 94.8073 518.13 94.9219 518.464C95.0313 518.786 95.2136 519.141 95.3854 519.531C95.4688 519.724 95.5625 519.927 95.6563 520.141C95.7552 520.344 95.8802 520.552 96 520.766C96.2448 521.182 96.474 521.651 96.7865 522.083C97.0938 522.516 97.3802 522.99 97.7448 523.411C98.0938 523.844 98.4427 524.292 98.8386 524.693C99.0365 524.896 99.2188 525.109 99.4271 525.307C99.625 525.5 99.8334 525.693 100.031 525.88C100.432 526.276 100.875 526.599 101.271 526.943C101.698 527.255 102.099 527.573 102.505 527.839C102.906 528.109 103.286 528.359 103.651 528.568C103.943 528.745 104.208 528.896 104.464 529.031L105.063 517.62C105.089 517.25 105.375 516.943 105.755 516.922C106.161 516.901 106.505 517.214 106.531 517.62L106.875 524.172H106.88C107.094 524.156 107.339 524.083 107.609 524.031C107.87 523.943 108.161 523.865 108.453 523.719C108.755 523.604 109.036 523.401 109.349 523.229C109.5 523.13 109.641 523.01 109.786 522.896C109.932 522.786 110.089 522.677 110.219 522.531C110.5 522.266 110.792 522 111.031 521.677L111.411 521.214C111.521 521.047 111.63 520.875 111.74 520.714C111.844 520.547 111.958 520.38 112.063 520.214C112.151 520.042 112.245 519.87 112.333 519.703C112.5 519.354 112.703 519.036 112.823 518.703C112.953 518.37 113.083 518.057 113.203 517.771C113.323 517.49 113.396 517.208 113.474 516.964C113.552 516.724 113.615 516.51 113.672 516.339C113.781 515.99 113.844 515.786 113.844 515.786L113.849 515.766C113.891 515.646 114.016 515.568 114.141 515.594C114.276 515.62 114.37 515.755 114.339 515.891C114.339 515.891 114.297 516.104 114.224 516.469C114.182 516.656 114.135 516.875 114.089 517.13C114.031 517.391 113.99 517.682 113.891 517.99C113.802 518.297 113.703 518.635 113.594 518.995C113.51 519.359 113.328 519.714 113.188 520.099C113.109 520.286 113.036 520.484 112.958 520.677C112.859 520.87 112.76 521.057 112.656 521.25C112.557 521.443 112.458 521.641 112.354 521.833L111.984 522.396C111.75 522.776 111.464 523.12 111.167 523.464C111.031 523.635 110.865 523.792 110.698 523.943C110.536 524.094 110.385 524.25 110.219 524.391C109.865 524.646 109.536 524.917 109.172 525.104C108.833 525.323 108.469 525.464 108.146 525.609C107.802 525.729 107.49 525.844 107.198 525.896L106.964 525.943L109.568 575.578H102.026L104.375 530.781C103.948 530.542 103.427 530.229 102.844 529.828C102.474 529.583 102.083 529.286 101.677 528.974C101.266 528.661 100.859 528.302 100.438 527.943C100.031 527.552 99.5886 527.182 99.1927 526.745C98.9948 526.526 98.7917 526.313 98.5886 526.094C98.3907 525.875 98.2084 525.641 98.0209 525.411C97.625 524.964 97.2865 524.469 96.9532 523.99C96.599 523.526 96.3282 523.01 96.0417 522.536C95.7396 522.068 95.5313 521.568 95.3021 521.115C95.1979 520.885 95.0834 520.667 94.9948 520.448C94.9063 520.224 94.8282 520.005 94.7448 519.797C94.599 519.38 94.4323 519.01 94.3386 518.661C94.2396 518.318 94.1563 518.01 94.0938 517.771C93.9584 517.271 93.8802 516.99 93.8802 516.99C93.849 516.859 93.9167 516.724 94.0417 516.677Z" fill="#784824"/>
</g>
<defs>
<clipPath id="clip0_303_1437">
<rect width="828" height="586" fill="white"/>
</clipPath>
</defs>
</svg>
