<svg width="322" height="295" viewBox="0 0 322 295" fill="none" xmlns="http://www.w3.org/2000/svg">
<g clip-path="url(#clip0_303_1413)" filter="url(#filter0_d_303_1413)">
<path d="M269.495 324.518C220.038 324.518 179.937 284.405 179.937 234.96C179.937 185.492 220.038 145.403 269.495 145.403C318.963 145.403 359.064 185.492 359.064 234.96C359.064 284.405 318.963 324.518 269.495 324.518Z" fill="#B3B3B3"/>
<path d="M347.017 225.558C347.017 275.014 306.916 315.104 257.471 315.104C207.991 315.104 167.902 275.014 167.902 225.558C167.902 176.089 207.991 136 257.471 136C306.916 136 347.017 176.089 347.017 225.558Z" fill="#5A8BD9"/>
<path d="M338.67 225.558C338.67 270.39 302.315 306.756 257.471 306.756C212.604 306.756 176.261 270.39 176.261 225.558C176.261 180.714 212.604 144.359 257.471 144.359C302.315 144.359 338.67 180.714 338.67 225.558Z" fill="#80ABF0"/>
<path d="M333.773 225.558C333.773 267.71 299.6 301.883 257.471 301.883C215.319 301.883 181.135 267.71 181.135 225.558C181.135 183.405 215.319 149.233 257.471 149.233C299.6 149.233 333.773 183.405 333.773 225.558Z" fill="#BBD5FF"/>
<path d="M207.109 200.394C207.109 200.394 210.663 201.543 215.696 203.805C218.227 204.924 221.119 206.293 224.17 207.862C227.249 209.407 230.429 211.202 233.616 212.987C236.755 214.854 239.91 216.717 242.767 218.599C245.661 220.462 248.299 222.272 250.517 223.909C254.993 227.137 257.764 229.64 257.764 229.64C257.764 229.64 254.204 228.502 249.171 226.24C246.651 225.127 243.758 223.758 240.697 222.183C237.633 220.66 234.449 218.849 231.268 217.054C228.123 215.197 224.984 213.33 222.107 211.436C219.216 209.589 216.584 207.768 214.35 206.136C209.875 202.908 207.109 200.394 207.109 200.394Z" fill="#2D2E38"/>
<path d="M306.944 200.4C306.944 200.4 304.173 202.904 299.697 206.131C297.463 207.764 294.831 209.584 291.947 211.441C289.07 213.335 285.925 215.192 282.786 217.059C279.599 218.844 276.408 220.645 273.35 222.178C270.289 223.754 267.402 225.133 264.876 226.235C259.843 228.498 256.289 229.646 256.289 229.646C256.289 229.646 259.055 227.132 263.53 223.904C265.754 222.278 268.386 220.457 271.281 218.594C274.132 216.702 277.293 214.85 280.438 212.993C283.618 211.198 286.805 209.413 289.884 207.868C292.928 206.288 295.821 204.919 298.351 203.8C303.385 201.538 306.944 200.4 306.944 200.4Z" fill="#2D2E38"/>
<path d="M256.926 227.324L215.675 264.924C215.355 265.208 215.343 265.706 215.627 266.026C215.924 266.347 216.41 266.37 216.73 266.086L257.993 228.486C258.313 228.19 258.337 227.692 258.041 227.372C257.756 227.052 257.258 227.04 256.926 227.324Z" fill="#B72431"/>
<path d="M262.95 229.352C262.95 232.447 260.424 234.96 257.329 234.96C254.223 234.96 251.709 232.447 251.709 229.352C251.709 226.234 254.223 223.732 257.329 223.732C260.424 223.732 262.95 226.234 262.95 229.352Z" fill="#2D2E38"/>
</g>
<defs>
<filter id="filter0_d_303_1413" x="-4" y="0" width="326" height="295" filterUnits="userSpaceOnUse" color-interpolation-filters="sRGB">
<feFlood flood-opacity="0" result="BackgroundImageFix"/>
<feColorMatrix in="SourceAlpha" type="matrix" values="0 0 0 0 0 0 0 0 0 0 0 0 0 0 0 0 0 0 127 0" result="hardAlpha"/>
<feOffset dy="4"/>
<feGaussianBlur stdDeviation="2"/>
<feComposite in2="hardAlpha" operator="out"/>
<feColorMatrix type="matrix" values="0 0 0 0 0 0 0 0 0 0 0 0 0 0 0 0 0 0 0.25 0"/>
<feBlend mode="normal" in2="BackgroundImageFix" result="effect1_dropShadow_303_1413"/>
<feBlend mode="normal" in="SourceGraphic" in2="effect1_dropShadow_303_1413" result="shape"/>
</filter>
<clipPath id="clip0_303_1413">
<rect width="318" height="287" fill="white"/>
</clipPath>
</defs>
</svg>
