<svg width="318" height="287" viewBox="0 0 318 287" fill="none" xmlns="http://www.w3.org/2000/svg">
<g clip-path="url(#clip0_303_1428)">
<path d="M155.932 99.043C156.287 92.2712 165.1 89.9098 168.793 95.5969L211.666 161.616C213.318 164.16 216.419 165.35 219.349 164.565L295.386 144.191C301.936 142.436 306.905 150.088 302.637 155.358L253.098 216.534C251.189 218.891 251.015 222.209 252.667 224.752L295.541 290.771C299.234 296.458 293.492 303.549 287.161 301.119L213.671 272.908C210.84 271.822 207.631 272.681 205.722 275.038L156.183 336.214C151.915 341.484 143.397 338.215 143.752 331.443L147.872 252.832C148.031 249.803 146.221 247.017 143.39 245.93L69.8996 217.72C63.5689 215.29 64.0464 206.178 70.5964 204.423L146.633 184.049C149.562 183.264 151.653 180.683 151.812 177.654L155.932 99.043Z" fill="#D27E08"/>
<path d="M230.343 88.4894C232.438 82.0402 241.562 82.0402 243.657 88.4894L267.983 163.356C268.92 166.24 271.608 168.193 274.64 168.193H353.359C360.14 168.193 362.96 176.87 357.474 180.856L293.789 227.126C291.335 228.908 290.309 232.068 291.246 234.952L315.571 309.818C317.667 316.267 310.286 321.63 304.8 317.644L241.114 271.374C238.661 269.592 235.339 269.592 232.886 271.374L169.2 317.644C163.714 321.63 156.333 316.267 158.429 309.818L182.754 234.952C183.691 232.068 182.665 228.908 180.211 227.126L116.526 180.856C111.04 176.87 113.86 168.193 120.641 168.193H199.36C202.392 168.193 205.08 166.24 206.017 163.356L230.343 88.4894Z" fill="#FA9D19"/>
</g>
<defs>
<clipPath id="clip0_303_1428">
<rect width="318" height="287" fill="white"/>
</clipPath>
</defs>
</svg>
