<svg width="636" height="600" viewBox="0 0 636 600" fill="none" xmlns="http://www.w3.org/2000/svg">
<g clip-path="url(#clip0_303_1247)">
<path d="M857.59 437.984C857.59 437.984 849.75 519.043 637.845 514.795C425.94 510.548 188.781 468.501 188.781 468.501C188.781 468.501 133.763 383.184 160.371 312.324C165.71 298.119 174.325 284.493 187.329 272.242C194.655 265.342 203.379 258.889 213.675 253.015C215.313 252.076 216.994 251.159 218.719 250.252C221.372 248.855 223.982 247.512 226.581 246.224C303.85 207.507 351.979 212.016 402.586 202.102C415.513 199.569 428.604 196.086 442.383 190.703C450.136 187.679 458.106 184.054 466.393 179.654C474.058 175.57 481.996 170.832 490.283 165.285C492.903 163.538 495.556 161.704 498.253 159.782C543.51 127.529 607.296 128.981 669.498 162.173C683.364 169.565 697.143 178.54 710.617 189.055C715.978 193.236 721.284 197.658 726.525 202.331C733.13 208.206 739.649 214.484 746.014 221.133C760.874 236.604 775.057 254.161 788.203 273.76C793.4 281.512 798.434 289.581 803.281 297.966C805.181 301.242 807.048 304.572 808.894 307.945C814.56 318.34 819.954 329.193 825.031 340.515C838.242 369.94 849.324 402.455 857.59 437.984Z" fill="#D0E8F5"/>
<path d="M808.893 307.946C766.956 307.247 667.489 301.318 598.888 262.71C598.888 262.71 545.344 220.926 645.51 255.122C681.552 266.237 737.563 279.372 788.203 273.76C793.4 281.512 798.434 289.581 803.281 297.966C805.181 301.242 807.048 304.572 808.893 307.946Z" fill="#E1EEF5"/>
<path d="M245.677 277.931C229.398 275.638 209.177 273.367 187.329 272.242C194.655 265.342 203.379 258.889 213.686 253.015C215.313 252.076 216.994 251.159 218.719 250.253C221.372 248.855 223.993 247.512 226.581 246.224C245.961 250.471 267.426 256.192 291.141 263.693C296.819 265.484 301.852 268.192 305.685 271.653C313.939 279.099 316.592 289.493 245.677 277.931Z" fill="#E1EEF5"/>
<path d="M683.867 507.982C685.374 508.626 686.498 506.246 685.264 505.001C676.41 496.07 659.661 474.211 666.037 441.227C675.733 391.046 671.813 338.866 657.259 322.554C642.715 306.242 618.454 313.678 629.111 345.166C639.767 376.655 639.964 404.694 634.035 423.364C628.095 442.024 644.702 474.812 663.176 492.773C672.534 501.868 679.379 506.06 683.867 507.982Z" fill="#A7C980"/>
<path d="M831.386 482.673L600.734 476.373C600.734 476.373 584.836 415.82 615.834 379.756C643.523 347.536 644.385 390.893 644.385 390.893C644.385 390.893 667.598 341.181 712.779 345.483C757.959 349.796 721.251 412.653 721.251 412.653C721.251 412.653 744.442 369.656 793.859 380.902C843.276 392.148 798.849 436.619 798.849 436.619C798.849 436.619 849.881 414.498 871.795 437.984C896.82 464.767 867.056 483.634 867.056 483.634L831.386 482.673Z" fill="#4B7F25"/>
<path d="M153.242 484.071L331.671 482.302C331.671 482.302 330.295 406.157 302.038 395.348C273.781 384.527 281.675 414.772 281.675 414.772C281.675 414.772 268.311 356.5 237.674 358.684C207.037 360.878 229.823 422.163 229.823 422.163C229.823 422.163 215.531 380.313 181.815 388.928C148.099 397.542 176.672 441.675 176.672 441.675C176.672 441.675 142.935 418.495 127.376 439.884C109.644 464.298 129.134 483.481 129.134 483.481L153.242 484.071Z" fill="#4B8025"/>
<path d="M236.811 481.811C236.811 481.811 250.143 437.689 216.972 410.688C179.249 379.963 151.778 337.109 154.399 313.295C157.019 289.482 181.782 276.206 191.39 308.557C200.988 340.908 206.862 356.838 222.836 366.446C238.831 376.055 254.696 419.641 249.76 447.778C244.814 475.926 236.811 481.811 236.811 481.811Z" fill="#64A336"/>
<path d="M159.651 396.232C156.921 401.473 155.676 407.478 155.906 413.516C156.277 423.91 159.596 438.53 175.111 448.488C195.441 461.535 209.439 464.188 209.035 489.17C209.035 489.17 221.875 477.203 209.766 453.39C197.647 429.577 181.815 425.472 173.124 400.348C167.938 385.346 162.883 390.03 159.651 396.232Z" fill="#64A336"/>
<path d="M175.417 477.902C175.417 477.902 139.441 466.765 145.828 449.448C152.215 432.143 175.417 477.902 175.417 477.902Z" fill="#64A336"/>
<path d="M236.8 482.411C236.713 482.411 236.626 482.389 236.549 482.346C236.276 482.182 236.178 481.822 236.32 481.516C244.127 465.324 244.072 442.548 236.156 417.381C229.223 395.326 214.887 382.912 191.118 362.363L190.113 361.49C184.425 356.565 179.97 349.982 176.891 341.935C174.434 335.515 172.829 328.145 172.13 320.043C170.94 306.253 172.807 294.931 172.829 294.811C172.884 294.483 173.168 294.265 173.473 294.33C173.768 294.385 173.976 294.702 173.921 295.04C173.899 295.149 172.065 306.33 173.244 319.956C173.932 327.926 175.504 335.176 177.917 341.476C180.931 349.327 185.265 355.736 190.801 360.529L191.816 361.402C215.739 382.093 230.173 394.594 237.215 416.988C240.982 428.987 243.013 440.474 243.242 451.13C243.504 462.966 241.506 473.382 237.303 482.095C237.204 482.302 237.008 482.422 236.8 482.411Z" fill="#4A851E"/>
<path d="M209.81 487.881C209.766 487.881 209.733 487.87 209.69 487.859C209.395 487.783 209.209 487.456 209.275 487.128C209.995 483.863 210.334 480.118 210.301 476.002C210.225 467.802 208.445 462.245 204.34 457.386C200.311 452.648 194.175 448.651 185.68 443.105C183.54 441.718 181.324 440.266 178.922 438.672C167.479 431.051 164.225 419.674 163.505 411.474C162.74 402.608 164.629 395.653 164.706 395.359C164.804 395.031 165.11 394.856 165.405 394.955C165.699 395.053 165.863 395.391 165.776 395.719C165.754 395.784 163.865 402.761 164.629 411.398C165.066 416.442 166.322 421.05 168.342 425.111C170.875 430.166 174.631 434.381 179.5 437.624C181.891 439.218 184.108 440.659 186.248 442.057C203.423 453.259 211.262 458.369 211.415 475.991C211.448 480.206 211.098 484.049 210.356 487.412C210.301 487.696 210.061 487.881 209.81 487.881Z" fill="#4A851E"/>
<path d="M172.469 477.138C172.392 477.127 172.316 477.105 172.24 477.072C158.351 469.779 148.437 449.547 148.339 449.35C148.197 449.055 148.295 448.673 148.568 448.52C148.841 448.367 149.18 448.477 149.322 448.771C149.42 448.968 159.159 468.861 172.72 475.969C173.004 476.111 173.113 476.482 172.982 476.788C172.884 477.007 172.676 477.138 172.469 477.138Z" fill="#4A851E"/>
<path d="M726.525 202.331C703.269 208.206 676.54 212.114 648.163 210.924C598.866 208.861 523.66 193.204 466.393 179.654C474.058 175.57 481.996 170.832 490.283 165.285C534.513 176.553 593.942 185.342 641.656 169.62C651.046 166.53 660.359 164.073 669.498 162.173C683.364 169.565 697.143 178.54 710.617 189.055C715.978 193.236 721.284 197.658 726.525 202.331Z" fill="#E1EEF5"/>
<path d="M154.966 576.626C154.966 576.626 163.636 558.644 184.796 565.49C205.945 572.325 147.367 589.98 154.966 576.626Z" fill="#D3CFD7"/>
<mask id="mask0_303_1247" style="mask-type:luminance" maskUnits="userSpaceOnUse" x="-283" y="470" width="1156" height="220">
<path d="M-283 470.193H872.537V689.07H-283V470.193Z" fill="white"/>
</mask>
<g mask="url(#mask0_303_1247)">
<path d="M185.5 474.5C185.5 474.5 799.518 466.938 860.525 488.948C921.531 510.958 702.225 493.509 672.184 580.689C624.099 720.251 -223.001 721.407 -92.6604 604.979C-17.1789 537.562 -179.163 603.641 -246.532 572.08C-313.916 540.503 46.2691 474.318 185.5 474.5Z" fill="#D3CFD7"/>
</g>
<path d="M478.24 503.069L481.57 537.375H491.844L498.996 503.069H478.24Z" fill="#FEB48A"/>
<path d="M545.093 505.493L548.915 537.08L562.814 537.964L561.558 498.254L545.093 505.493Z" fill="#FEB48A"/>
<path d="M502.882 117.604L502.609 135.063L496.561 137.203L514.62 175.319L532.089 136.111L527.918 135.063L527.187 118.358L502.882 117.604Z" fill="#FEB48A"/>
<path d="M527.493 122.911C526.499 124.156 525.44 125.182 524.348 126.012C517.786 131.078 508.32 130.041 502.948 123.73C502.926 123.708 502.904 123.675 502.882 123.642C503.024 122.551 503.112 121.382 503.144 120.116H527.263C527.263 120.148 527.263 121.262 527.493 122.911Z" fill="#E08E60"/>
<path d="M496.386 109.896C496.386 109.896 498.253 116.491 502.588 121.83C508.058 128.556 517.983 129.746 524.708 124.265C527.777 121.775 530.615 117.768 532.133 111.348C536.489 93.0161 538.902 81.5409 532.133 75.9397C525.374 70.3386 500.732 63.0996 496.386 76.8459C492.041 90.6032 491.549 97.3508 496.386 109.896Z" fill="#FEB48A"/>
<mask id="mask1_303_1247" style="mask-type:luminance" maskUnits="userSpaceOnUse" x="484" y="53" width="63" height="47">
<path d="M484.529 53H546.021V99.7527H484.529V53Z" fill="white"/>
</mask>
<g mask="url(#mask1_303_1247)">
<path d="M541.25 81.2023C541.25 81.2023 545.563 82.4689 543.783 87.7752C543.019 90.0572 541.523 90.7778 539.984 91.0726C543.019 95.6256 538.968 99.1631 538.968 99.1631C538.968 99.1631 536.173 99.0867 534.601 94.8722C533.072 92.5575 532.537 87.9062 532.537 87.9062C526.456 88.1574 526.194 80.973 526.194 80.973C518.343 83.1458 516.574 78.036 516.574 78.036C509.991 86.6397 499.847 82.589 499.847 82.589C499.967 93.7476 495.84 100.179 492.03 99.6436C484.048 98.5408 488.448 91.9461 488.667 90.8979C483.481 87.4258 483.077 76.6275 491.429 73.3301C491.429 73.3301 485.588 64.6063 491.942 60.3809C498.297 56.1663 502.129 60.3263 502.129 60.3263C502.129 60.3263 504.444 54.0372 512.338 53.5022C519.861 52.9891 521.335 59.3764 521.335 59.3764C521.335 59.3764 525.08 53.5896 531.096 58.0334C537.112 62.4772 535.835 66.4733 535.835 66.4733C535.835 66.4733 541.851 67.1394 543.161 74.3019C543.652 77.0096 541.25 81.2023 541.25 81.2023Z" fill="#363339"/>
</g>
<path d="M524.534 90.5923C526.739 90.6796 528.508 91.1273 528.486 91.6077C528.475 92.0881 526.674 92.4047 524.468 92.3174C522.263 92.23 520.483 91.7824 520.505 91.302C520.527 90.8325 522.328 90.5049 524.534 90.5923Z" fill="#363339"/>
<path d="M524.588 96.6847C525.145 96.6847 525.582 97.58 525.582 98.6828C525.582 99.7746 525.145 100.67 524.588 100.67C524.032 100.67 523.584 99.7746 523.584 98.6828C523.584 97.58 524.032 96.6847 524.588 96.6847Z" fill="#363339"/>
<path d="M520.8 116.949C520.996 117.189 520.963 117.55 520.723 117.746C518.529 119.548 516.389 120.094 514.543 120.017C511.104 119.886 508.647 117.703 508.615 117.67C508.385 117.462 508.364 117.102 508.582 116.873C508.789 116.644 509.15 116.633 509.379 116.829C509.521 116.96 511.726 118.915 514.784 118.915C516.356 118.915 518.146 118.401 519.992 116.873C520.243 116.665 520.603 116.709 520.8 116.949Z" fill="#363339"/>
<path d="M518.125 108.204C518.147 108.422 518.059 108.64 517.895 108.815C517.633 109.088 516.716 109.514 513.594 109.394C513.452 109.394 513.299 109.383 513.146 109.372C512.829 109.361 512.589 109.099 512.611 108.782C512.622 108.477 512.884 108.236 513.19 108.247H513.2C514.827 108.335 516.443 108.247 516.967 108.073C516.76 106.577 515.581 100.976 514.937 98.0714C514.882 97.7657 515.068 97.4599 515.373 97.3944C515.679 97.3289 515.985 97.5255 516.05 97.8312C516.127 98.1915 518.005 106.828 518.125 108.204Z" fill="#363339"/>
<path d="M505.656 89.9154C507.861 90.0027 509.63 90.4504 509.619 90.9308C509.597 91.4003 507.796 91.7169 505.59 91.6405C503.385 91.5531 501.616 91.1055 501.627 90.6251C501.638 90.1446 503.45 89.828 505.656 89.9154Z" fill="#363339"/>
<path d="M506.999 96.6847C507.556 96.6847 507.992 97.58 507.992 98.6828C507.992 99.7746 507.556 100.67 506.999 100.67C506.453 100.67 506.005 99.7746 506.005 98.6828C506.005 97.58 506.453 96.6847 506.999 96.6847Z" fill="#363339"/>
<path d="M495.698 99.3596C495.698 99.3596 491.953 90.7668 489.365 96.0841C486.767 101.401 490.228 106.347 495.698 106.358C501.168 106.369 495.698 99.3596 495.698 99.3596Z" fill="#FEB48A"/>
<path d="M531.893 99.3596C531.893 99.3596 535.649 90.7668 538.236 96.0841C540.824 101.401 537.374 106.347 531.893 106.358C526.423 106.369 531.893 99.3596 531.893 99.3596Z" fill="#FEB48A"/>
<path d="M468.304 264.829C468.304 264.829 464.242 489.202 474.254 520.178L503.003 522.744L515.45 368.696L535.813 512.601C535.813 512.601 549.33 521.172 569.376 509.26L562.65 264.829H468.304Z" fill="#5A8BD9"/>
<path d="M473.457 470.401C473.304 470.401 473.163 470.324 473.086 470.193C472.955 469.986 473.021 469.724 473.228 469.593C477.399 467.103 479.888 460.432 479.888 455.41C479.888 450.136 487.979 442.603 488.328 442.275C488.503 442.122 488.776 442.133 488.929 442.308C489.093 442.482 489.082 442.755 488.907 442.908C488.82 442.985 480.74 450.518 480.74 455.41C480.74 460.662 478.098 467.682 473.676 470.335C473.599 470.379 473.523 470.401 473.457 470.401Z" fill="#4F71A8"/>
<path d="M478.239 443.018C478.185 443.018 478.13 443.018 478.076 442.996C477.857 442.908 477.748 442.657 477.835 442.439C477.879 442.308 483.306 428.54 493.296 422.939C493.492 422.819 493.765 422.895 493.875 423.102C493.995 423.31 493.918 423.572 493.711 423.681C483.993 429.14 478.687 442.614 478.632 442.756C478.567 442.919 478.414 443.018 478.239 443.018Z" fill="#4F71A8"/>
<path d="M541.457 503.527C540.322 503.527 539.645 503.495 539.623 503.495C539.394 503.484 539.208 503.287 539.219 503.036C539.23 502.807 539.427 502.621 539.678 502.632C539.82 502.654 553.992 503.342 561.307 497.915C561.493 497.773 561.766 497.806 561.908 498.003C562.039 498.188 562.006 498.461 561.809 498.603C558.632 500.962 553.926 502.501 547.834 503.178C545.257 503.473 542.964 503.527 541.457 503.527Z" fill="#4F71A8"/>
<path d="M515.45 369.132C515.45 369.132 515.45 369.132 515.439 369.132C515.199 369.122 515.013 368.925 515.024 368.685L516.269 326.441C516.269 326.212 516.476 326.037 516.705 326.026C516.946 326.037 517.131 326.234 517.12 326.463L515.876 368.718C515.876 368.947 515.679 369.132 515.45 369.132Z" fill="#4F71A8"/>
<path d="M508.156 322.456H508.145C494.388 322.271 490.577 319.268 490.424 319.148C490.239 318.995 490.217 318.722 490.359 318.547C490.512 318.362 490.785 318.329 490.97 318.482C491.014 318.515 494.803 321.43 508.156 321.605C508.396 321.605 508.582 321.801 508.582 322.03C508.571 322.271 508.385 322.456 508.156 322.456Z" fill="#4F71A8"/>
<path d="M511.617 311.723C511.574 311.723 511.519 311.712 511.464 311.69C503.909 308.808 510.897 279.667 511.202 278.433C511.257 278.204 511.486 278.062 511.716 278.116C511.945 278.171 512.098 278.4 512.032 278.629C510.034 286.862 506.082 308.721 511.77 310.893C511.989 310.981 512.109 311.221 512.021 311.45C511.956 311.614 511.792 311.723 511.617 311.723Z" fill="#4F71A8"/>
<path d="M516.694 317.237C516.454 317.237 516.269 317.052 516.269 316.811V285.224C516.269 284.995 516.454 284.798 516.694 284.798C516.935 284.798 517.12 284.995 517.12 285.224V316.811C517.12 317.052 516.935 317.237 516.694 317.237Z" fill="#4F71A8"/>
<path d="M472.617 301.449C472.453 301.449 472.311 301.351 472.224 301.209C472.125 300.99 472.213 300.728 472.431 300.63C472.551 300.575 484.114 294.931 490.315 281.861C490.414 281.654 490.665 281.556 490.883 281.654C491.091 281.763 491.189 282.014 491.08 282.232C484.758 295.575 472.922 301.351 472.802 301.405C472.737 301.438 472.682 301.449 472.617 301.449Z" fill="#4F71A8"/>
<path d="M561.668 304.015C561.657 304.015 561.635 304.015 561.624 304.015C557.027 303.556 553.118 300.172 550.29 294.188C548.183 289.734 547.43 285.475 547.397 285.301C547.364 285.061 547.517 284.842 547.747 284.809C547.987 284.766 548.205 284.919 548.249 285.159C548.282 285.323 551.317 302.137 561.711 303.163C561.951 303.185 562.115 303.393 562.093 303.633C562.071 303.851 561.886 304.015 561.668 304.015Z" fill="#4F71A8"/>
<path d="M572.914 240.066C573.023 240.066 573.11 240.011 573.187 239.913C575.567 236.561 581.943 236.583 582.009 236.583C582.216 236.583 582.391 236.408 582.391 236.2C582.391 235.982 582.227 235.807 582.02 235.807C581.943 235.807 580.305 235.796 578.318 236.233C575.61 236.823 573.678 237.915 572.575 239.465C572.455 239.64 572.488 239.88 572.652 240C572.739 240.055 572.826 240.077 572.914 240.066Z" fill="#363339"/>
<path d="M548.631 358.301C548.631 358.301 526.095 338.419 527.427 328.953C528.759 319.497 532.351 316.331 536.762 312.684C541.163 309.048 555.084 312.597 556.776 318.624C558.468 324.662 568.153 346.739 568.153 346.739L548.631 358.301Z" fill="#BCD17C"/>
<path d="M551.732 350.789C551.677 350.789 551.633 350.779 551.59 350.757C549.188 349.927 548.456 346.957 547.757 344.086C547.211 341.825 546.644 339.5 545.312 338.211C543.849 336.814 542.298 336.224 540.802 335.646C539.165 335.023 537.472 334.379 536.064 332.665C533.574 329.63 529.84 326.802 529.797 326.769C529.611 326.627 529.567 326.354 529.72 326.157C529.862 325.961 530.135 325.928 530.332 326.07C530.484 326.19 534.175 328.996 536.741 332.108C537.996 333.637 539.514 334.215 541.119 334.838C542.691 335.427 544.318 336.061 545.912 337.578C547.43 339.041 548.03 341.498 548.62 343.878C549.286 346.64 549.93 349.261 551.874 349.938C552.103 350.014 552.223 350.265 552.136 350.495C552.07 350.669 551.906 350.789 551.732 350.789Z" fill="#9AAF5C"/>
<path d="M560.368 340.133C560.314 340.133 560.259 340.122 560.204 340.1C552.911 337.01 551.743 330.492 550.967 322.303C550.684 319.224 549.493 316.986 547.43 315.665C545.912 314.682 544.471 314.584 544.46 314.584C544.22 314.573 544.034 314.376 544.045 314.125C544.067 313.885 544.264 313.7 544.515 313.71C544.58 313.721 551.088 314.158 551.841 322.227C552.583 330.121 553.697 336.388 560.543 339.292C560.761 339.391 560.87 339.642 560.772 339.86C560.707 340.035 560.543 340.133 560.368 340.133Z" fill="#9AAF5C"/>
<path d="M538.903 333.833H538.892C538.651 333.822 538.455 333.615 538.466 333.375C538.597 328.985 531.795 318.624 531.729 318.515C531.598 318.318 531.653 318.045 531.849 317.914C532.057 317.783 532.33 317.838 532.461 318.034C532.745 318.471 539.47 328.734 539.339 333.396C539.339 333.637 539.143 333.833 538.903 333.833Z" fill="#9AAF5C"/>
<path d="M552.965 331.835C552.954 331.835 552.933 331.835 552.922 331.835C552.747 331.813 548.729 331.409 543.717 327.566C538.673 323.712 536.468 314.748 536.38 314.376C536.326 314.136 536.468 313.896 536.708 313.852C536.937 313.787 537.177 313.929 537.232 314.169C537.254 314.256 539.448 323.209 544.242 326.878C549.046 330.547 552.965 330.951 553.009 330.962C553.249 330.983 553.424 331.191 553.391 331.431C553.38 331.66 553.184 331.835 552.965 331.835Z" fill="#9AAF5C"/>
<path d="M554.21 343.114C554.057 343.114 553.905 343.037 553.828 342.906C548.391 333.429 545.028 333.746 544.984 333.746C544.755 333.779 544.526 333.615 544.493 333.386C544.46 333.145 544.613 332.927 544.842 332.883C544.951 332.861 545.956 332.72 547.659 333.888C549.843 335.373 552.168 338.255 554.581 342.47C554.702 342.677 554.636 342.939 554.429 343.059C554.352 343.103 554.287 343.114 554.21 343.114Z" fill="#9AAF5C"/>
<path d="M562.661 338.19C562.541 338.19 562.421 338.135 562.333 338.026C556.285 331.027 556.481 324.978 556.492 324.727C556.503 324.487 556.71 324.29 556.951 324.312C557.191 324.323 557.376 324.52 557.366 324.771C557.366 324.836 557.191 330.743 562.988 337.458C563.152 337.644 563.13 337.917 562.945 338.08C562.868 338.146 562.759 338.19 562.661 338.19Z" fill="#9AAF5C"/>
<path d="M547.801 349.676C547.615 349.676 547.452 349.556 547.386 349.37C543.794 337.96 531.041 334.095 530.921 334.051C530.681 333.986 530.561 333.746 530.626 333.506C530.692 333.276 530.932 333.145 531.161 333.211C531.303 333.254 544.482 337.251 548.227 349.108C548.292 349.337 548.172 349.577 547.943 349.654C547.899 349.665 547.845 349.676 547.801 349.676Z" fill="#9AAF5C"/>
<path d="M593.68 349.49C586.245 335.689 577.084 329.815 562.716 331.18C551.426 332.261 544.809 336.934 542.484 338.899C541.818 339.467 541.501 340.341 541.643 341.203C541.872 342.59 542.538 344.577 544.46 344.959C547.495 345.603 577.718 350.844 581.408 360.136C585.088 369.427 585.71 370.705 584.705 373.554C583.876 375.913 581.998 376.077 582.249 377.878V377.889C582.358 378.708 582.926 379.396 583.668 379.734C585.284 380.466 588.429 381.623 589.389 379.996C589.935 379.09 589.772 378.129 589.52 377.092C589.138 375.574 588.549 373.904 589.51 372.037C591.158 368.881 601.127 363.302 593.68 349.49Z" fill="#FFC546"/>
<path d="M589.52 377.092C586.43 377.059 584.061 377.387 582.249 377.878V377.889C582.358 378.708 582.926 379.396 583.668 379.734C585.284 380.466 588.428 381.623 589.389 379.996C589.935 379.09 589.771 378.129 589.52 377.092Z" fill="#AD7F63"/>
<path d="M589.542 361.009C589.488 360.813 583.788 341.705 568.601 340.548C553.184 339.369 543.052 339.347 542.953 339.347V338.637C543.052 338.637 553.217 338.659 568.655 339.827C584.334 341.028 590.165 360.616 590.23 360.813L589.542 361.009Z" fill="#AD7F63"/>
<path d="M587.238 345.942C587.173 345.854 580.316 336.705 568.83 335.296L568.917 334.586C580.709 336.039 587.741 345.428 587.806 345.527L587.238 345.942Z" fill="#AD7F63"/>
<path d="M583.941 356.325C571.079 341.694 546.589 345.636 546.338 345.68L546.229 344.97C546.283 344.959 552.561 343.922 560.357 344.752C567.574 345.505 577.608 348.049 584.476 355.856L583.941 356.325Z" fill="#AD7F63"/>
<path d="M606.204 362.319C602.109 375.989 579.847 356.74 579.847 356.74C580.851 352.242 582.478 347.536 584.585 342.677C584.716 342.382 584.836 342.098 584.978 341.804C586.966 337.316 589.357 332.698 592.064 327.97C592.294 327.577 592.523 327.173 592.752 326.791C595.569 321.943 598.692 316.986 602.033 311.974C602.033 311.974 601.378 309.965 603.256 307.356C603.987 306.34 605.287 305.904 606.51 306.199C608.944 306.799 612.93 308.055 613.017 309.878C613.137 312.509 610.855 314.464 610.855 314.464C610.855 314.464 610.298 348.66 606.204 362.319Z" fill="white"/>
<path d="M610.855 314.464L602.033 311.974C602.033 311.974 601.378 309.965 603.256 307.356C603.987 306.34 605.287 305.904 606.51 306.199C608.944 306.799 612.93 308.055 613.017 309.878C613.137 312.509 610.855 314.464 610.855 314.464Z" fill="#C8C9C9"/>
<path d="M603.059 311.811C602.994 311.811 602.939 311.8 602.884 311.778C602.666 311.68 602.59 311.429 602.677 311.221L604.839 306.646C604.937 306.439 605.188 306.351 605.396 306.439C605.603 306.537 605.69 306.788 605.592 306.996L603.441 311.581C603.365 311.723 603.212 311.811 603.059 311.811Z" fill="#F3F5F5"/>
<path d="M605.461 312.498C605.407 312.498 605.341 312.477 605.287 312.455C605.079 312.357 604.992 312.105 605.079 311.898L607.241 307.323C607.35 307.116 607.601 307.017 607.798 307.127C608.016 307.225 608.093 307.465 608.005 307.673L605.843 312.258C605.767 312.411 605.625 312.498 605.461 312.498Z" fill="#F3F5F5"/>
<path d="M607.863 313.175C607.809 313.175 607.743 313.164 607.689 313.132C607.481 313.033 607.394 312.782 607.492 312.586L609.654 308C609.752 307.793 610.003 307.705 610.2 307.804C610.418 307.891 610.506 308.153 610.407 308.349L608.245 312.935C608.18 313.088 608.027 313.175 607.863 313.175Z" fill="#F3F5F5"/>
<path d="M610.276 313.852C610.222 313.852 610.156 313.831 610.091 313.809C609.894 313.71 609.796 313.47 609.894 313.252L612.056 308.677C612.154 308.47 612.406 308.382 612.613 308.481C612.82 308.579 612.908 308.83 612.809 309.037L610.648 313.612C610.582 313.765 610.429 313.852 610.276 313.852Z" fill="#F3F5F5"/>
<path d="M593.921 345.254C591.475 345.603 587.915 344.304 584.585 342.677C586.824 337.545 589.586 332.228 592.752 326.791C596.486 328.09 602.284 330.514 603.813 333.233C606.116 337.338 599.784 344.424 593.921 345.254Z" fill="#C8C9C9"/>
<path d="M592.927 343.758C590.853 343.933 587.905 343.037 584.978 341.804C585.59 340.428 586.234 339.03 586.922 337.633C587.763 335.908 588.658 334.161 589.608 332.414C590.394 330.951 591.213 329.466 592.064 327.97C595.853 329.313 600.919 331.475 602.426 333.691C604.926 337.371 598.823 343.278 592.927 343.758Z" fill="white"/>
<path d="M597.305 337.884C596.738 339.871 593.779 340.777 590.678 339.904C589.062 339.456 587.741 338.605 586.922 337.633C587.763 335.908 588.658 334.161 589.608 332.414C590.558 332.294 591.628 332.392 592.709 332.698C595.81 333.571 597.862 335.886 597.305 337.884Z" fill="#C8C9C9"/>
<path d="M588.374 344.042L583.581 343.572C583.592 343.539 583.996 339.183 583.417 334.019C582.915 329.466 581.528 323.319 577.805 319.857C575.152 317.39 571.658 316.56 567.116 317.324L566.319 312.586C572.357 311.57 577.325 312.837 581.091 316.342C590.143 324.771 588.461 343.267 588.374 344.042Z" fill="#DFA26D"/>
<path d="M550.858 344.522C550.716 343.998 547.583 331.475 553.686 322.249C556.896 317.39 562.017 314.398 568.863 313.361C574.999 312.433 580.076 313.776 583.963 317.346C593.047 325.71 591.934 343.343 591.879 344.085L587.064 343.747C587.086 343.594 588.079 327.664 580.688 320.884C577.892 318.307 574.268 317.401 569.594 318.111C564.146 318.94 560.15 321.211 557.715 324.891C552.791 332.304 555.488 343.212 555.521 343.321L550.858 344.522Z" fill="#EBBD96"/>
<path d="M581.364 285.617C580.818 295.815 581.408 309.66 577.139 320.283C574.868 325.95 562.781 327.402 560.455 327.271C558.13 327.151 561.067 324.52 563.283 318.132C565.5 311.734 563.764 309.31 562.759 310.653C561.755 311.996 562.77 319.028 559.877 320.731C556.994 322.434 556.088 321.921 557.737 317.357C559.385 312.793 558.25 308.087 563.141 303.698C568.044 299.309 570.216 293.107 570.107 286.589C569.998 280.071 581.364 285.617 581.364 285.617Z" fill="#FEB48A"/>
<path d="M549.155 344.577C549.089 344.358 547.659 339.216 548.271 333.178C549.122 324.858 553.413 318.886 560.674 315.916L562.497 320.371C556.907 322.653 553.73 327.129 553.064 333.669C552.54 338.801 553.773 343.223 553.784 343.267L549.155 344.577Z" fill="#DFA26D"/>
<path d="M545.836 341.258L611.936 340.69V430.374H530.91V341.258H545.836Z" fill="#EBBD96"/>
<path d="M550.858 344.522C550.793 344.293 549.439 338.954 550.126 332.72C551.065 324.105 555.4 317.991 562.661 315.021L564.484 319.475C558.916 321.747 555.706 326.343 554.92 333.113C554.308 338.495 555.498 343.278 555.52 343.321L550.858 344.522Z" fill="#EBBD96"/>
<path d="M546.622 430.789C546.534 430.789 546.458 430.767 546.382 430.723L538.728 425.908C538.52 425.777 538.455 425.515 538.586 425.308C538.717 425.1 538.99 425.046 539.186 425.166L546.185 429.555L546.349 342.339C546.349 342.098 546.545 341.902 546.786 341.902C547.026 341.902 547.222 342.109 547.222 342.339L547.059 430.352C547.059 430.505 546.971 430.658 546.829 430.734C546.764 430.767 546.698 430.789 546.622 430.789Z" fill="#CF9768"/>
<path d="M480.62 529.754C480.62 529.754 490.643 532.603 493.504 531.653V552.923C493.504 552.923 461.611 553.687 456.086 552.923C450.561 552.147 454.852 546.426 462.484 544.996C470.116 543.565 478.709 538.325 480.62 529.754Z" fill="#392217"/>
<path d="M548.369 531.653C548.369 531.653 554.614 517.361 562.475 529.753C562.475 529.753 568.415 554.527 566.515 557.857C564.594 561.199 551.437 563.098 546.087 557.857L548.369 531.653Z" fill="#392217"/>
<path d="M571.232 156.474C567.29 147.641 530.594 135.489 530.594 135.489L515.057 165.471L501.321 135.489C501.321 135.489 482.454 141.909 468.304 149.617C459.667 154.323 456.414 168.299 452.865 176.597C449.863 189.022 444.076 214.418 447.264 225.173C446.456 226.363 445.244 227.051 443.432 227.138C436.105 227.509 401.57 238.22 386.896 237.937C372.222 237.664 385.007 264.599 385.422 265.265C385.826 265.931 428.462 257.24 446.86 260.112C454.645 261.324 461.371 259.14 466.535 256.214C465.378 268.541 464.646 289.483 467.441 291.371C473.021 295.16 502.708 283.128 516.771 285.388C529.436 287.419 565.281 291.164 563.076 283.248C562.661 281.741 563.513 261.4 560.51 242.992L556.972 210.291C559.484 223.011 563.764 243.45 566.417 249.98C570.369 259.686 566.515 277.669 566.515 277.669L565.238 293.588L582.98 299.156C582.98 299.156 590.23 289.362 591.103 274.186C595.252 202.299 573.186 160.852 571.232 156.474Z" fill="#6BA044"/>
<path d="M465.727 257.066C465.716 257.066 465.705 257.066 465.694 257.066C465.487 257.055 465.323 256.869 465.356 256.651L471.35 191.555C471.372 191.347 471.569 191.195 471.765 191.206C471.983 191.227 472.136 191.424 472.115 191.631L466.109 256.727C466.098 256.924 465.924 257.066 465.727 257.066Z" fill="#48732A"/>
<path d="M557.508 213.403C557.289 213.403 557.114 213.228 557.114 213.021L556.678 191.599C556.678 191.38 556.852 191.206 557.071 191.195C557.071 191.195 557.071 191.195 557.082 191.195C557.289 191.195 557.475 191.369 557.475 191.577L557.901 212.999C557.912 213.217 557.737 213.392 557.518 213.403H557.508Z" fill="#48732A"/>
<path d="M515.057 177.001C515.046 177.001 515.046 177.001 515.035 177.001C514.893 176.99 514.762 176.902 514.696 176.782L496.255 139.518C496.157 139.321 496.244 139.092 496.43 138.994C496.626 138.895 496.866 138.972 496.965 139.168L515.068 175.745L535.288 138.721C535.398 138.535 535.638 138.469 535.823 138.568C536.009 138.677 536.086 138.906 535.987 139.103L515.395 176.793C515.33 176.924 515.199 177.001 515.057 177.001Z" fill="#48732A"/>
<path d="M470.924 286.054C470.739 286.054 470.575 285.923 470.542 285.737C470.498 285.519 470.629 285.323 470.848 285.268C472.027 285.017 499.814 279.175 505.678 278.662C511.715 278.127 529.24 279.798 540.409 281.96C540.617 282.003 540.759 282.222 540.715 282.429C540.671 282.648 540.464 282.779 540.256 282.746C529.141 280.584 511.726 278.924 505.743 279.448C499.934 279.962 471.295 285.978 471.012 286.043C470.979 286.043 470.957 286.054 470.924 286.054Z" fill="#48732A"/>
<path d="M458.324 234.475C458.27 234.475 458.215 234.464 458.171 234.453C453.335 232.412 448.432 227.782 448.225 227.586C448.061 227.444 448.061 227.204 448.214 227.051C448.356 226.898 448.596 226.887 448.749 227.04C448.792 227.084 453.76 231.757 458.466 233.744C458.663 233.831 458.761 234.05 458.674 234.246C458.608 234.388 458.477 234.475 458.324 234.475Z" fill="#48732A"/>
<path d="M530.91 430.811C530.758 430.811 530.616 430.745 530.528 430.603C530.408 430.396 530.474 430.123 530.681 430.003L538.63 425.177V341.913C538.63 341.673 538.826 341.476 539.066 341.476C539.307 341.476 539.503 341.673 539.503 341.913V425.428C539.503 425.581 539.427 425.723 539.296 425.799L531.129 430.756C531.063 430.789 530.987 430.811 530.91 430.811Z" fill="#CF9768"/>
<path d="M586.856 341.192C586.856 341.192 586.845 341.192 586.834 341.192C586.594 341.181 586.409 340.974 586.42 340.734C586.736 333.833 585.262 329.127 583.974 326.387C582.587 323.428 581.102 322.074 581.08 322.063C580.895 321.899 580.884 321.626 581.048 321.441C581.201 321.266 581.484 321.255 581.67 321.419C581.921 321.637 587.915 327.14 587.293 340.777C587.282 341.007 587.096 341.192 586.856 341.192Z" fill="#CF9768"/>
<path d="M550.52 341.651C550.312 341.651 550.127 341.498 550.094 341.29C547.823 327.686 554.167 320.917 554.429 320.644C554.603 320.469 554.876 320.458 555.051 320.633C555.226 320.797 555.237 321.07 555.062 321.244C555.007 321.31 548.762 328.003 550.957 341.149C551 341.378 550.836 341.607 550.596 341.651C550.574 341.651 550.553 341.651 550.52 341.651Z" fill="#CF9768"/>
<path d="M561.842 323.351C561.788 323.351 561.722 323.341 561.667 323.308C561.449 323.209 561.351 322.947 561.46 322.74C561.493 322.664 564.812 315.599 564.386 311.953C564.364 311.712 564.528 311.494 564.768 311.472C564.998 311.45 565.216 311.614 565.238 311.843C565.696 315.73 562.377 322.806 562.224 323.1C562.159 323.253 562.006 323.351 561.842 323.351Z" fill="#D68D64"/>
<path d="M367.385 162.752C367.385 162.752 347.131 168.572 339.259 151.583C336.911 146.516 331.965 133.185 335.678 128.501C339.39 123.806 335.437 115.683 336.016 109.492C336.671 102.581 344.456 95.7457 353.409 96.0732C362.384 96.4117 366.948 90.0463 376.403 91.0071C385.87 91.9679 378.849 97.984 390.761 98.3006C402.673 98.6282 405.785 102.33 406.385 109.492C406.986 116.654 405.894 120.356 410.338 123.064C416.299 126.699 413.712 146.888 408.853 149.486C404.005 152.074 409.017 160.361 390.761 161.955C372.516 163.549 367.385 162.752 367.385 162.752Z" fill="#A4A3A2"/>
<path d="M332.49 125.258C332.26 125.258 332.031 125.127 331.933 124.898C331.791 124.592 331.922 124.221 332.238 124.09C335.361 122.66 335.416 120.64 335.59 114.635C335.612 113.827 335.645 112.953 335.678 112.014C336.005 103.552 340.569 102.886 340.766 102.865C341.104 102.821 341.41 103.061 341.454 103.4C341.497 103.727 341.257 104.044 340.919 104.087C340.755 104.109 337.195 104.742 336.912 112.058C336.879 112.997 336.857 113.87 336.824 114.667C336.649 120.705 336.573 123.457 332.752 125.204C332.664 125.247 332.577 125.258 332.49 125.258Z" fill="#8F8F8F"/>
<path d="M383.194 100.899C382.987 100.899 382.79 100.801 382.681 100.604C382.496 100.32 382.583 99.9384 382.867 99.7637C383.009 99.6763 386.142 97.7219 390.139 96.5427C395.543 94.9486 399.878 95.5819 402.651 98.3989C402.902 98.6391 402.902 99.0321 402.651 99.2723C402.411 99.5125 402.018 99.5125 401.778 99.2723C395.805 93.2235 383.653 100.724 383.533 100.801C383.424 100.866 383.315 100.899 383.194 100.899Z" fill="#8F8F8F"/>
<path d="M380.389 94.621C380.181 94.621 379.985 94.5227 379.875 94.348C377.048 89.9916 369.219 89.9806 363.967 92.7103C358.191 95.691 352.558 94.1078 352.317 94.0314C351.99 93.944 351.804 93.6056 351.902 93.278C351.99 92.9505 352.328 92.7539 352.656 92.8522C352.71 92.8631 358.082 94.3699 363.4 91.6184C369.241 88.5831 377.67 88.6923 380.913 93.6711C381.087 93.955 381.011 94.3371 380.727 94.5227C380.618 94.5882 380.509 94.621 380.389 94.621Z" fill="#8F8F8F"/>
<path d="M413.428 147.499C413.362 147.499 413.297 147.488 413.231 147.466C412.915 147.368 412.729 147.019 412.838 146.691C415.633 138 410.993 130.412 410.949 130.335C410.764 130.052 410.851 129.669 411.146 129.484C411.441 129.309 411.812 129.396 411.986 129.691C412.194 130.008 416.998 137.815 414.017 147.073C413.93 147.324 413.69 147.499 413.428 147.499Z" fill="#8F8F8F"/>
<path d="M412.904 120.792C411.899 120.792 408.023 118.314 406.789 112.123C405.621 106.238 402.411 102.712 402.367 102.668C402.138 102.417 402.16 102.035 402.411 101.794C402.651 101.565 403.044 101.576 403.285 101.827C403.426 101.98 406.768 105.638 408.001 111.872C409.093 117.408 412.336 119.406 412.882 119.559C413.177 119.559 413.439 119.777 413.493 120.072C413.537 120.41 413.319 120.738 412.98 120.792C412.958 120.792 412.936 120.792 412.904 120.792Z" fill="#8F8F8F"/>
<path d="M342.349 159.859C342.207 159.859 342.054 159.804 341.945 159.706C330.666 149.803 334.564 131.383 334.597 131.209C334.673 130.87 335.001 130.663 335.339 130.739C335.667 130.805 335.885 131.132 335.809 131.471C335.765 131.645 332.042 149.355 342.753 158.778C343.015 158.996 343.037 159.389 342.807 159.651C342.687 159.782 342.523 159.859 342.349 159.859Z" fill="#8F8F8F"/>
<path d="M390.444 169.631L374.001 223.775L353.202 173.671C353.202 173.671 360.113 171.541 360.67 168.2C360.987 166.29 360.572 161.267 360.157 157.326C359.851 154.389 359.545 152.052 359.545 152.052L385.76 155.95L385.935 166.093C388.01 168.408 390.444 169.631 390.444 169.631Z" fill="#FEB48A"/>
<path d="M385.75 164.881C384.691 165.449 383.337 165.908 381.601 166.202C370.453 168.091 363.629 161.54 359.982 156.114C359.676 153.177 359.371 150.84 359.371 150.84L385.586 154.738L385.75 164.881Z" fill="#DB885A"/>
<path d="M357.678 157.129C367.887 166.246 379.286 165.34 390.816 156.387C399.714 149.486 391.897 106.391 391.897 106.391L350.265 111.217C350.265 111.217 348.288 148.744 357.678 157.129Z" fill="#FEB48A"/>
<path d="M373.63 145.534C373.281 145.534 372.888 145.468 372.353 145.283C370.497 144.671 372.058 138.055 373.15 134.168C373.226 133.906 373.499 133.753 373.761 133.818C374.023 133.895 374.176 134.168 374.1 134.43C372.746 139.277 372.08 143.907 372.669 144.355C373.63 144.671 373.859 144.584 374.646 144.3C375.05 144.147 375.541 143.961 376.283 143.787C376.545 143.71 376.818 143.874 376.884 144.136C376.949 144.409 376.796 144.671 376.524 144.737C375.836 144.911 375.366 145.086 374.984 145.228C374.471 145.414 374.089 145.534 373.63 145.534Z" fill="#DB885A"/>
<path d="M373.565 154.301C370.18 154.301 367.767 152.467 367.734 152.445C367.527 152.27 367.483 151.965 367.647 151.746C367.822 151.539 368.127 151.495 368.346 151.659C368.542 151.812 373.237 155.349 378.685 151.648C378.915 151.495 379.209 151.55 379.373 151.779C379.526 151.998 379.472 152.303 379.242 152.456C377.211 153.843 375.268 154.301 373.565 154.301Z" fill="#DB885A"/>
<path d="M383.195 155.022C383.096 155.022 382.987 154.989 382.9 154.924C380.825 153.351 381.306 150.786 381.83 149.639C381.95 149.388 382.245 149.29 382.496 149.399C382.736 149.519 382.845 149.814 382.725 150.065C382.681 150.163 381.557 152.664 383.5 154.137C383.719 154.301 383.762 154.607 383.599 154.825C383.5 154.956 383.347 155.022 383.195 155.022Z" fill="#DB885A"/>
<path d="M362.602 154.203C362.395 154.203 362.198 154.083 362.133 153.876C362.046 153.624 362.177 153.341 362.439 153.253C365.048 152.336 364.666 149.792 364.644 149.683C364.601 149.421 364.786 149.159 365.048 149.115C365.321 149.071 365.572 149.257 365.627 149.519C365.823 150.72 365.496 153.22 362.755 154.181C362.701 154.203 362.657 154.203 362.602 154.203Z" fill="#DB885A"/>
<path d="M387.573 127.103C385.095 126.241 382.234 126.197 379.788 127.18C379.231 127.387 378.598 127.103 378.402 126.536C378.194 125.968 378.478 125.356 379.046 125.149C379.799 124.865 380.563 124.625 381.35 124.505C383.708 124.101 386.11 124.341 388.37 125.149C389.669 125.706 388.894 127.627 387.573 127.103Z" fill="#858585"/>
<path d="M359.272 125.149C361.533 124.341 363.935 124.101 366.293 124.505C367.079 124.625 367.843 124.865 368.597 125.149C369.154 125.356 369.448 125.968 369.241 126.536C369.023 127.125 368.357 127.409 367.789 127.158C365.354 126.197 362.526 126.252 360.07 127.103C358.748 127.627 357.962 125.706 359.272 125.149Z" fill="#858585"/>
<path d="M365.594 131.526C365.594 132.454 365.092 133.207 364.48 133.207C363.858 133.207 363.356 132.454 363.356 131.526C363.356 130.597 363.858 129.855 364.48 129.855C365.092 129.855 365.594 130.597 365.594 131.526Z" fill="#363339"/>
<path d="M384.265 131.526C384.265 132.454 383.762 133.207 383.14 133.207C382.529 133.207 382.026 132.454 382.026 131.526C382.026 130.597 382.529 129.855 383.14 129.855C383.762 129.855 384.265 130.597 384.265 131.526Z" fill="#363339"/>
<path d="M339.259 133.644C339.259 133.644 351.575 138.284 354.075 133.644C356.576 129.025 349.326 112.822 360.397 114.427C371.479 116.032 381.939 115.366 383.14 107.516C383.14 107.516 383.752 123.817 395.511 126.525L394.026 106.282L377.517 100.277L360.408 102.69L348.288 108.99L344.827 121.83L339.259 133.644Z" fill="#A4A3A2"/>
<path d="M355.003 135.849C355.003 135.849 351.269 128.239 348.911 132.934C346.552 137.629 350.843 147.161 355.003 141.658C359.163 136.155 355.003 135.849 355.003 135.849Z" fill="#FEB48A"/>
<path d="M392.606 135.849C392.606 135.849 396.351 128.239 398.71 132.934C401.068 137.629 396.766 147.161 392.606 141.658C388.457 136.155 392.606 135.849 392.606 135.849Z" fill="#FEB48A"/>
<path d="M383.391 107.243C383.326 107.243 383.26 107.232 383.195 107.199C382.965 107.101 382.856 106.817 382.965 106.588L386.798 98.115C386.907 97.8748 387.18 97.7765 387.42 97.8748C387.649 97.984 387.759 98.2679 387.649 98.4971L383.817 106.97C383.741 107.145 383.577 107.243 383.391 107.243Z" fill="#8A8A8A"/>
<path d="M364.721 109.012C363.934 109.012 363.137 108.979 362.308 108.902C362.046 108.87 361.86 108.64 361.882 108.389C361.904 108.127 362.144 107.942 362.395 107.963C371.697 108.859 378.358 103.989 378.423 103.935C378.642 103.782 378.925 103.825 379.089 104.033C379.242 104.24 379.198 104.535 378.991 104.688C378.74 104.874 373.084 109.012 364.721 109.012Z" fill="#8A8A8A"/>
<path d="M399.376 125.662C399.321 125.662 399.267 125.662 399.201 125.64C392.868 123.107 390.193 118.838 389.058 115.715C387.824 112.32 388.108 109.557 388.119 109.437C388.152 109.186 388.37 108.99 388.632 109.022C388.894 109.055 389.08 109.285 389.058 109.547C389.047 109.568 388.785 112.243 389.953 115.432C391.515 119.701 394.746 122.834 399.551 124.767C399.791 124.865 399.911 125.138 399.813 125.378C399.736 125.553 399.561 125.662 399.376 125.662Z" fill="#8A8A8A"/>
<path d="M346.869 149.661C346.858 149.661 346.858 149.661 346.847 149.661C344.434 149.563 342.676 148.744 341.606 147.237C339.816 144.693 340.602 141.013 340.864 139.987C339.674 138.71 339.106 137.334 339.161 135.893C339.27 133.414 341.235 131.7 341.312 131.624C341.519 131.46 341.814 131.482 341.978 131.678C342.152 131.875 342.12 132.17 341.934 132.344C341.912 132.355 340.187 133.873 340.1 135.947C340.056 137.181 340.602 138.382 341.727 139.529C341.858 139.649 341.89 139.834 341.836 139.998C341.825 140.042 340.591 144.147 342.382 146.691C343.266 147.958 344.784 148.635 346.891 148.722C347.142 148.744 347.35 148.951 347.339 149.213C347.328 149.464 347.12 149.661 346.869 149.661Z" fill="#8A8A8A"/>
<path d="M340.918 111.741C340.667 111.741 340.46 111.545 340.449 111.283C340.449 111.228 340.362 105.474 346.803 105.092C347.382 104.306 349.697 101.456 352.492 101.074C353.769 100.91 354.97 101.281 356.04 102.188C356.237 102.351 356.259 102.646 356.095 102.843C355.931 103.039 355.636 103.072 355.44 102.897C354.556 102.166 353.638 101.871 352.612 102.002C349.861 102.373 347.459 105.78 347.437 105.813C347.349 105.933 347.218 106.009 347.065 106.009C341.344 106.238 341.388 111.053 341.388 111.261C341.388 111.523 341.191 111.741 340.929 111.741H340.918Z" fill="#8A8A8A"/>
<path d="M380.29 98.7809C380.159 98.7809 380.039 98.7264 379.941 98.6172C374.93 92.9614 365.66 97.8638 365.572 97.9184C365.343 98.0385 365.059 97.9511 364.939 97.7219C364.808 97.4926 364.895 97.2087 365.125 97.0886C365.223 97.034 367.625 95.7456 370.737 95.1997C374.93 94.4354 378.358 95.4071 380.64 97.9948C380.815 98.1914 380.804 98.4862 380.596 98.6499C380.509 98.7373 380.4 98.7809 380.29 98.7809Z" fill="#8A8A8A"/>
<path d="M398.349 156.736C398.153 156.736 397.978 156.616 397.902 156.42C397.825 156.179 397.956 155.917 398.196 155.819C398.393 155.754 403.099 154.028 401.963 148.591C401.941 148.46 401.963 148.34 402.04 148.231C402.116 148.122 402.225 148.056 402.345 148.023C402.389 148.023 406.156 147.357 407.717 144.868C408.46 143.711 408.602 142.313 408.154 140.719C408.078 140.468 408.22 140.206 408.482 140.14C408.722 140.075 408.984 140.217 409.049 140.457C409.584 142.335 409.399 143.984 408.514 145.37C407.062 147.674 404.114 148.58 402.968 148.853C403.918 154.749 398.568 156.693 398.502 156.714C398.458 156.725 398.404 156.736 398.349 156.736Z" fill="#8A8A8A"/>
<path d="M403.612 119.482C403.546 119.482 403.481 119.472 403.415 119.439C403.175 119.319 403.077 119.035 403.197 118.806C404.212 116.698 404.038 114.689 402.673 112.844C401.625 111.436 400.238 110.649 400.227 110.639C400.009 110.518 399.922 110.256 400.031 110.027C400.915 108.182 401.046 106.752 400.413 105.736C399.365 104.066 396.493 104.044 396.46 104.044C396.198 104.044 396.002 103.825 396.002 103.574C396.002 103.312 396.209 103.094 396.46 103.094C396.602 103.094 399.878 103.127 401.21 105.234C401.974 106.457 401.92 108.084 401.046 110.06C402.345 110.933 406.451 114.209 404.038 119.209C403.95 119.384 403.787 119.482 403.612 119.482Z" fill="#8A8A8A"/>
<path d="M405.534 138.36C405.424 138.36 405.315 138.317 405.217 138.229C405.031 138.055 405.02 137.76 405.195 137.563C408.755 133.687 405.173 127.617 405.141 127.551C405.01 127.333 405.075 127.038 405.293 126.907C405.523 126.776 405.807 126.852 405.938 127.071C405.981 127.136 406.953 128.752 407.433 130.925C408.099 133.851 407.564 136.373 405.883 138.197C405.785 138.306 405.665 138.36 405.534 138.36Z" fill="#8A8A8A"/>
<path d="M348.332 124.101C348.168 124.101 348.016 124.025 347.928 123.872C346.301 121.164 345.876 118.642 346.651 116.371C347.939 112.549 352.143 110.857 352.317 110.781C352.558 110.693 352.831 110.813 352.929 111.053C353.027 111.283 352.896 111.556 352.656 111.654C352.623 111.676 348.682 113.259 347.535 116.666C346.847 118.675 347.251 120.935 348.725 123.391C348.867 123.621 348.791 123.904 348.572 124.036C348.496 124.079 348.409 124.101 348.332 124.101Z" fill="#8A8A8A"/>
<path d="M403.055 562.695C400.609 563.044 398.699 561.341 397.159 558.567C393.927 552.704 392.443 542.07 391.34 536.152C390.848 533.466 392.06 530.769 394.375 529.35C397.738 527.286 400.195 526.183 402.586 527.515C406.495 529.699 408.438 540.738 410.622 547.813C411.331 550.106 411.997 552.3 412.183 554.287C412.565 558.415 410.851 561.592 403.055 562.695Z" fill="#3F3635"/>
<path d="M389.757 514.053C389.757 531.38 392.89 543.303 399.146 543.882C405.403 544.439 406.811 544.439 404.835 518.606C402.837 492.762 389.757 514.053 389.757 514.053Z" fill="#FEB48A"/>
<path d="M403.055 562.695C400.61 563.044 398.699 561.341 397.159 558.567C401.057 560.5 407.466 561.963 412.183 554.287C412.565 558.415 410.851 561.592 403.055 562.695Z" fill="#5B4E4E"/>
<path d="M356.204 552.104C349.097 552.671 325.786 556.089 322.084 555.226C318.394 554.375 313.557 542.736 322.084 542.168C330.612 541.6 334.029 539.613 334.029 539.613C334.029 539.613 335.525 538.991 336.977 538.139C338.298 537.386 339.587 536.447 339.718 535.639C340.897 528.585 341.421 502.13 341.421 502.13L356.204 507.807C356.204 518.082 357.853 528.618 358.77 536.84C359.753 545.662 359.884 551.809 356.204 552.104Z" fill="#FEB48A"/>
<path d="M359.327 546.601C359.141 549.909 358.279 551.94 356.204 552.104C349.096 552.671 325.785 556.089 322.084 555.226C321.156 555.019 320.162 554.134 319.333 552.912C316.811 549.254 315.686 542.594 322.084 542.168C330.611 541.6 334.029 539.613 334.029 539.613C334.029 539.613 335.525 538.991 336.977 538.139C339.292 539.012 342.622 539.897 346.541 539.897C351.291 539.897 355.92 538.161 358.77 536.84C359.207 540.683 359.469 544.024 359.327 546.601Z" fill="#3F3635"/>
<path d="M359.327 546.601C359.141 549.909 358.279 551.94 356.204 552.104C349.096 552.671 325.785 556.089 322.084 555.226C321.156 555.019 320.163 554.135 319.333 552.912L359.327 546.601Z" fill="#5B4E4E"/>
<path d="M327.205 283.783C327.205 288.325 322.084 334.892 322.084 372.659C322.084 410.426 324.65 522.864 324.65 522.864H366.73L372.134 433.988L381.229 522.864H421.606C421.606 522.864 435.778 312.28 425.252 289.286L327.205 283.783Z" fill="#FFE7D9"/>
<path d="M367.985 502.883C367.974 502.883 367.953 502.883 367.942 502.883C367.527 502.861 367.21 502.501 367.232 502.086L371.163 438.377L376.305 357.493L358.803 339.969C358.508 339.675 358.508 339.194 358.803 338.899C359.098 338.605 359.567 338.605 359.873 338.899L377.615 356.675C377.768 356.827 377.845 357.035 377.834 357.253L372.658 438.465L368.739 502.185C368.717 502.578 368.378 502.883 367.985 502.883Z" fill="#D6BEB1"/>
<path d="M401.505 454.711C401.232 454.711 400.97 454.548 400.828 454.285C400.642 453.914 400.795 453.467 401.166 453.281C409.377 449.165 413.777 439.218 413.81 439.12C413.974 438.738 414.421 438.563 414.803 438.727C415.186 438.901 415.36 439.338 415.186 439.72C415.011 440.146 410.545 450.268 401.843 454.624C401.734 454.679 401.625 454.711 401.505 454.711Z" fill="#D6BEB1"/>
<path d="M336.3 397.597C336.027 397.597 335.776 397.455 335.645 397.204C335.438 396.843 335.569 396.385 335.94 396.188C335.994 396.155 341.334 393.197 344.685 387.923C344.915 387.574 345.373 387.475 345.734 387.694C346.083 387.923 346.181 388.382 345.963 388.731C342.382 394.343 336.89 397.378 336.65 397.509C336.54 397.564 336.42 397.597 336.3 397.597Z" fill="#D6BEB1"/>
<path d="M418.963 322.784C418.909 322.784 418.865 322.773 418.81 322.762C410.469 321.069 406.069 316.669 403.841 313.285C401.428 309.594 401.002 306.33 400.981 306.199C400.937 305.784 401.232 305.412 401.647 305.358C402.051 305.314 402.422 305.598 402.476 306.013C402.542 306.504 404.191 318.263 419.105 321.288C419.509 321.375 419.782 321.779 419.695 322.183C419.618 322.533 419.313 322.784 418.963 322.784Z" fill="#D6BEB1"/>
<path d="M329.334 323.679C329.225 323.679 329.116 323.646 329.007 323.592C328.635 323.417 328.482 322.969 328.657 322.598L337.665 304.059C337.851 303.687 338.298 303.524 338.68 303.709C339.052 303.895 339.204 304.342 339.03 304.714L330.011 323.253C329.891 323.515 329.618 323.679 329.334 323.679Z" fill="#D6BEB1"/>
<path d="M407.095 517.001C405.195 517.001 403.186 516.924 401.057 516.782C395.489 516.433 391.154 515.702 391.11 515.702C390.696 515.625 390.423 515.243 390.488 514.828C390.565 514.413 390.947 514.151 391.362 514.217C391.525 514.238 408.405 517.045 418.756 514.228C419.16 514.118 419.575 514.359 419.684 514.752C419.793 515.156 419.553 515.571 419.16 515.68C415.939 516.564 411.899 517.001 407.095 517.001Z" fill="#D6BEB1"/>
<path d="M348.397 517.001C346.509 517.001 344.5 516.924 342.37 516.782C336.791 516.433 332.457 515.702 332.413 515.702C332.009 515.625 331.736 515.243 331.801 514.828C331.867 514.413 332.26 514.151 332.664 514.217C332.839 514.238 349.708 517.045 360.069 514.228C360.473 514.118 360.888 514.359 360.997 514.752C361.107 515.156 360.866 515.571 360.462 515.68C357.252 516.564 353.202 517.001 348.397 517.001Z" fill="#D6BEB1"/>
<path d="M315.358 297.289C312.563 301.94 307.497 314.759 304.309 319.192C301.121 323.624 303.796 337.283 305.357 338.222C306.907 339.161 310.183 338.998 310.336 336.978C310.489 334.958 309.877 328.177 309.877 328.177C309.877 328.177 312.498 335.602 314.179 334.466C314.419 334.303 314.529 334.008 314.507 333.713C314.408 332.61 316.952 331.715 318.896 328.472C321.232 324.596 322.575 315.894 321.953 313.405C321.331 310.915 319.245 307.542 321.112 304.43C322.979 301.329 315.358 297.289 315.358 297.289Z" fill="#FEB48A"/>
<path d="M304.473 332.01L292.321 553.152Z" fill="#BABFC4"/>
<path d="M295.607 553.337L289.034 552.977L301.186 331.835L307.759 332.195L295.607 553.337Z" fill="#5B4E4E"/>
<path d="M299.406 332.403C299.406 332.403 306.067 326.168 312.771 332.403C317.771 337.065 321.451 332.403 321.451 332.403" fill="#BABFC4"/>
<path d="M317.258 338.637C315.337 338.637 312.683 338.015 309.932 335.438C307.836 333.495 306.11 333.669 305.008 333.975C303.403 334.423 302.234 335.46 302.223 335.471L302.256 335.438L296.568 329.378C300.378 325.808 308.6 322.849 315.599 329.367C316.276 329.99 316.909 330.35 317.291 330.317C317.695 330.285 318.175 329.837 318.175 329.837C319.606 328.035 322.215 327.719 324.028 329.138C325.829 330.558 326.135 333.178 324.715 334.98C324.453 335.318 321.997 338.288 317.935 338.604C317.717 338.615 317.487 338.637 317.258 338.637Z" fill="#5B4E4E"/>
<path d="M447.526 305.019C449.066 314.344 452.363 326.714 450.638 337.163C449.721 342.732 439.097 346.455 436.968 346.804C434.85 347.154 436.979 344.195 437.689 337.982C438.42 331.77 436.367 329.924 435.734 331.333C435.09 332.752 437.405 338.899 435.145 341.017C432.874 343.125 431.956 342.841 432.535 338.397C433.103 333.953 431.137 329.913 434.675 324.978C438.234 320.043 438.944 314.016 437.547 308.153C436.138 302.279 447.526 305.019 447.526 305.019Z" fill="#FEB48A"/>
<path d="M355.353 172.48C346.541 177.579 321.232 188.662 312.989 209.669C304.735 230.687 303.315 317.565 303.315 317.565H322.368L326.08 308.688C340.11 314.278 372.451 314.453 428.899 307.476L429.281 318.427L451.162 318.394C451.162 318.394 448.967 284.034 445.899 262.601C442.908 241.616 435.123 207.714 426.868 195.497C421.092 186.947 389.331 168.397 389.331 168.397L371.818 189.841L355.353 172.48Z" fill="#FA9D19"/>
<path d="M380.651 206.197L371.359 194.317L359.709 206.131L349.293 178.77L350.625 178.267L360.244 203.554L371.49 192.167L380.399 203.565L396.286 172.535L397.552 173.179L380.651 206.197Z" fill="#D27E08"/>
<path d="M370.104 312.75L368.673 312.717L371.108 197.506L372.527 197.538L370.104 312.75Z" fill="#D27E08"/>
<path d="M428.211 307.651C428.091 307.192 416.605 261.968 414.924 243.811C414.432 238.45 414.421 221.286 414.421 220.565H415.841C415.841 220.74 415.852 238.384 416.343 243.68C418.014 261.728 429.467 306.854 429.587 307.301L428.211 307.651Z" fill="#D27E08"/>
<path d="M326.779 308.742L325.36 308.633L331.9 216.722L333.319 216.82L326.779 308.742Z" fill="#D27E08"/>
<path d="M315.5 336.541C315.402 336.541 315.293 336.53 315.195 336.519C313.983 336.344 313.153 335.231 313.317 334.03L314.965 322.533C315.14 321.321 316.254 320.48 317.466 320.666C318.667 320.84 319.496 321.943 319.333 323.155L317.684 334.652C317.531 335.744 316.581 336.541 315.5 336.541Z" fill="#FEB48A"/>
<path d="M174.729 509.555C173.976 509.555 173.31 509.009 173.189 508.244C173.058 507.393 173.637 506.596 174.478 506.465C174.849 506.399 211.568 500.492 250.175 491.594C251.005 491.408 251.846 491.932 252.042 492.762C252.228 493.603 251.704 494.433 250.863 494.629C212.157 503.539 175.34 509.478 174.969 509.533C174.893 509.544 174.805 509.555 174.729 509.555Z" fill="#BAB6BD"/>
<path d="M46.558 576.998C45.8046 576.998 45.1386 576.452 45.0185 575.688C44.8875 574.836 45.4662 574.039 46.3069 573.908C46.6781 573.843 83.3968 567.936 122.004 559.037C122.834 558.852 123.675 559.376 123.871 560.206C124.057 561.046 123.533 561.876 122.692 562.073C83.9864 570.982 47.1694 576.922 46.7982 576.976C46.7218 576.987 46.6344 576.998 46.558 576.998Z" fill="#BAB6BD"/>
<path d="M421.999 583.047C421.256 583.047 420.59 582.49 420.47 581.725C420.339 580.874 420.918 580.077 421.769 579.946L477.563 571.167C478.414 571.047 479.211 571.626 479.342 572.467C479.473 573.318 478.895 574.115 478.043 574.246L422.25 583.025C422.163 583.036 422.086 583.047 421.999 583.047Z" fill="#BAB6BD"/>
</g>
<defs>
<clipPath id="clip0_303_1247">
<rect width="636" height="600" fill="white"/>
</clipPath>
</defs>
</svg>
