<svg width="673" height="287" viewBox="0 0 673 287" fill="none" xmlns="http://www.w3.org/2000/svg">
<g clip-path="url(#clip0_303_1437)">
<mask id="mask0_303_1437" style="mask-type:luminance" maskUnits="userSpaceOnUse" x="330" y="42" width="364" height="172">
<path d="M330 42H694V213.536H330V42Z" fill="white"/>
</mask>
<g mask="url(#mask0_303_1437)">
<path d="M693.604 208.771C693.604 210.98 691.813 212.771 689.604 212.771H334.687C332.478 212.771 330.688 210.98 330.688 208.771V177.953C330.688 175.744 332.478 173.953 334.687 173.953H360.318C362.527 173.953 364.318 172.162 364.318 169.953V103.583C364.318 101.374 366.109 99.5834 368.318 99.5834H401.042C403.251 99.5834 405.042 101.374 405.042 103.583V113.156C405.042 115.365 406.833 117.156 409.042 117.156H435.141C437.35 117.156 439.141 115.365 439.141 113.156V46.0521C439.141 43.843 440.931 42.0521 443.141 42.0521H483.917C486.126 42.0521 487.917 43.843 487.917 46.0521V113.156C487.917 115.365 489.708 117.156 491.917 117.156H518.964C521.173 117.156 522.964 118.947 522.964 121.156V154.292C522.964 156.501 524.754 158.292 526.964 158.292H555.427C557.636 158.292 559.427 156.501 559.427 154.292V61.8282C559.427 59.619 561.218 57.8282 563.427 57.8282H594.266C596.475 57.8282 598.266 59.619 598.266 61.8282V137.135C598.266 139.345 600.056 141.135 602.266 141.135H626.943C629.152 141.135 630.943 142.926 630.943 145.135V164.906C630.943 167.115 632.734 168.906 634.943 168.906H649.198C651.407 168.906 653.198 167.115 653.198 164.906V107.823C653.198 105.614 654.989 103.823 657.198 103.823H689.604C691.813 103.823 693.604 105.614 693.604 107.823V208.771Z" fill="#B2C1DA"/>
</g>
<path d="M662.984 205.453C661.328 205.453 659.984 204.11 659.984 202.453V134.078C659.984 132.421 658.641 131.078 656.984 131.078H622.255C620.598 131.078 619.255 132.421 619.255 134.078V145.651C619.255 147.308 617.912 148.651 616.255 148.651H588.156C586.499 148.651 585.156 147.308 585.156 145.651V76.552C585.156 74.8952 583.813 73.552 582.156 73.552H539.38C537.723 73.552 536.38 74.8951 536.38 76.552V145.651C536.38 147.308 535.037 148.651 533.38 148.651H504.333C502.676 148.651 501.333 149.994 501.333 151.651V186.792C501.333 188.448 499.99 189.792 498.333 189.792H467.87C466.213 189.792 464.87 188.448 464.87 186.792V92.3228C464.87 90.666 463.527 89.3228 461.87 89.3228H429.036C427.38 89.3228 426.036 90.666 426.036 92.3228V169.63C426.036 171.287 424.693 172.63 423.036 172.63H396.354C394.697 172.63 393.354 173.973 393.354 175.63V197.401C393.354 199.058 392.011 200.401 390.354 200.401H374.099C372.442 200.401 371.099 199.058 371.099 197.401V138.318C371.099 136.661 369.756 135.318 368.099 135.318H333.687C332.031 135.318 330.688 136.661 330.688 138.318V241.266C330.688 242.922 332.031 244.266 333.688 244.266H690.604C692.261 244.266 693.604 242.922 693.604 241.266V208.453C693.604 206.796 692.261 205.453 690.604 205.453H662.984Z" fill="#5A8BD9"/>
<path d="M342.526 166.63H334.63V143.495H342.526V166.63Z" fill="#84B0F4"/>
<path d="M354.838 166.63H346.943V143.495H354.838V166.63Z" fill="#84B0F4"/>
<path d="M367.151 166.63H359.26V143.495H367.151V166.63Z" fill="#84B0F4"/>
<path d="M342.526 198.396H334.63V175.255H342.526V198.396Z" fill="#84B0F4"/>
<path d="M354.838 198.396H346.943V175.255H354.838V198.396Z" fill="#84B0F4"/>
<path d="M367.151 198.396H359.26V175.255H367.151V198.396Z" fill="#84B0F4"/>
<path d="M342.526 230.161H334.63V207.021H342.526V230.161Z" fill="#84B0F4"/>
<path d="M354.838 230.161H346.943V207.021H354.838V230.161Z" fill="#84B0F4"/>
<path d="M367.151 230.161H359.26V207.021H367.151V230.161Z" fill="#84B0F4"/>
<path d="M376.078 212.49H370.307V208.078H376.078V212.49Z" fill="#84B0F4"/>
<path d="M384.318 212.49H378.552V208.078H384.318V212.49Z" fill="#84B0F4"/>
<path d="M392.568 212.49H386.797V208.078H392.568V212.49Z" fill="#84B0F4"/>
<path d="M376.078 221.75H370.307V217.328H376.078V221.75Z" fill="#84B0F4"/>
<path d="M384.318 221.75H378.552V217.328H384.318V221.75Z" fill="#84B0F4"/>
<path d="M392.568 221.75H386.797V217.328H392.568V221.75Z" fill="#84B0F4"/>
<path d="M376.078 231.005H370.307V226.589H376.078V231.005Z" fill="#84B0F4"/>
<path d="M384.318 231.005H378.552V226.589H384.318V231.005Z" fill="#84B0F4"/>
<path d="M392.568 231.005H386.797V226.589H392.568V231.005Z" fill="#84B0F4"/>
<path d="M434.245 149.594H430.771V98.052H434.245V149.594Z" fill="#84B0F4"/>
<path d="M442.766 149.594H439.292V98.052H442.766V149.594Z" fill="#84B0F4"/>
<path d="M451.292 149.594H447.818V98.052H451.292V149.594Z" fill="#84B0F4"/>
<path d="M459.813 149.594H456.344V98.052H459.813V149.594Z" fill="#84B0F4"/>
<path d="M434.245 211.651H430.771V160.109H434.245V211.651Z" fill="#84B0F4"/>
<path d="M442.766 211.651H439.292V160.109H442.766V211.651Z" fill="#84B0F4"/>
<path d="M451.292 211.651H447.818V160.109H451.292V211.651Z" fill="#84B0F4"/>
<path d="M459.813 211.651H456.344V160.109H459.813V211.651Z" fill="#84B0F4"/>
<path d="M403.302 189.354H396.828V180.724H403.302V189.354Z" fill="#84B0F4"/>
<path d="M414.193 189.354H407.719V180.724H414.193V189.354Z" fill="#84B0F4"/>
<path d="M425.083 189.354H418.615V180.724H425.083V189.354Z" fill="#84B0F4"/>
<path d="M403.302 203.026H396.828V194.401H403.302V203.026Z" fill="#84B0F4"/>
<path d="M414.193 203.026H407.719V194.401H414.193V203.026Z" fill="#84B0F4"/>
<path d="M425.083 203.026H418.615V194.401H425.083V203.026Z" fill="#84B0F4"/>
<path d="M403.302 216.703H396.828V208.078H403.302V216.703Z" fill="#84B0F4"/>
<path d="M414.193 216.703H407.719V208.078H414.193V216.703Z" fill="#84B0F4"/>
<path d="M425.083 216.703H418.615V208.078H425.083V216.703Z" fill="#84B0F4"/>
<path d="M403.302 230.375H396.828V221.75H403.302V230.375Z" fill="#84B0F4"/>
<path d="M414.193 230.375H407.719V221.75H414.193V230.375Z" fill="#84B0F4"/>
<path d="M425.083 230.375H418.615V221.75H425.083V230.375Z" fill="#84B0F4"/>
<path d="M500.859 199.87H466.443V195.87H500.859V199.87Z" fill="#84B0F4"/>
<path d="M500.859 208.078H466.443V204.078H500.859V208.078Z" fill="#84B0F4"/>
<path d="M500.859 216.276H466.443V212.281H500.859V216.276Z" fill="#84B0F4"/>
<path d="M500.859 224.484H466.443V220.484H500.859V224.484Z" fill="#84B0F4"/>
<path d="M500.859 232.688H466.443V228.688H500.859V232.688Z" fill="#84B0F4"/>
<path d="M544.589 114.458H540.484V84.5886H544.589V114.458Z" fill="#84B0F4"/>
<path d="M551.849 114.458H547.745V84.5886H551.849V114.458Z" fill="#84B0F4"/>
<path d="M559.109 114.458H555.005V84.5886H559.109V114.458Z" fill="#84B0F4"/>
<path d="M566.37 114.458H562.266V84.5886H566.37V114.458Z" fill="#84B0F4"/>
<path d="M573.63 114.458H569.531V84.5886H573.63V114.458Z" fill="#84B0F4"/>
<path d="M580.896 114.458H576.792V84.5886H580.896V114.458Z" fill="#84B0F4"/>
<path d="M544.589 150.646H540.484V120.771H544.589V150.646Z" fill="#84B0F4"/>
<path d="M551.849 150.646H547.745V120.771H551.849V150.646Z" fill="#84B0F4"/>
<path d="M559.109 150.646H555.005V120.771H559.109V150.646Z" fill="#84B0F4"/>
<path d="M566.37 150.646H562.266V120.771H566.37V150.646Z" fill="#84B0F4"/>
<path d="M573.63 150.646H569.531V120.771H573.63V150.646Z" fill="#84B0F4"/>
<path d="M580.896 150.646H576.792V120.771H580.896V150.646Z" fill="#84B0F4"/>
<path d="M544.589 186.828H540.484V156.958H544.589V186.828Z" fill="#84B0F4"/>
<path d="M551.849 186.828H547.745V156.958H551.849V186.828Z" fill="#84B0F4"/>
<path d="M559.109 186.828H555.005V156.958H559.109V186.828Z" fill="#84B0F4"/>
<path d="M566.37 186.828H562.266V156.958H566.37V186.828Z" fill="#84B0F4"/>
<path d="M573.63 186.828H569.531V156.958H573.63V186.828Z" fill="#84B0F4"/>
<path d="M580.896 186.828H576.792V156.958H580.896V186.828Z" fill="#84B0F4"/>
<path d="M544.589 223.016H540.484V193.135H544.589V223.016Z" fill="#84B0F4"/>
<path d="M551.849 223.016H547.745V193.135H551.849V223.016Z" fill="#84B0F4"/>
<path d="M559.109 223.016H555.005V193.135H559.109V223.016Z" fill="#84B0F4"/>
<path d="M566.37 223.016H562.266V193.135H566.37V223.016Z" fill="#84B0F4"/>
<path d="M573.63 223.016H569.531V193.135H573.63V223.016Z" fill="#84B0F4"/>
<path d="M580.896 223.016H576.792V193.135H580.896V223.016Z" fill="#84B0F4"/>
<path d="M512.542 167.531H506.068V158.911H512.542V167.531Z" fill="#84B0F4"/>
<path d="M523.276 167.531H516.802V158.911H523.276V167.531Z" fill="#84B0F4"/>
<path d="M535.115 167.531H528.641V158.911H535.115V167.531Z" fill="#84B0F4"/>
<path d="M512.542 182.26H506.068V173.63H512.542V182.26Z" fill="#84B0F4"/>
<path d="M523.276 182.26H516.802V173.63H523.276V182.26Z" fill="#84B0F4"/>
<path d="M535.115 182.26H528.641V173.63H535.115V182.26Z" fill="#84B0F4"/>
<path d="M512.542 196.984H506.068V188.359H512.542V196.984Z" fill="#84B0F4"/>
<path d="M523.276 196.984H516.802V188.359H523.276V196.984Z" fill="#84B0F4"/>
<path d="M535.115 196.984H528.641V188.359H535.115V196.984Z" fill="#84B0F4"/>
<path d="M512.542 211.708H506.068V203.083H512.542V211.708Z" fill="#84B0F4"/>
<path d="M523.276 211.708H516.802V203.083H523.276V211.708Z" fill="#84B0F4"/>
<path d="M535.115 211.708H528.641V203.083H535.115V211.708Z" fill="#84B0F4"/>
<path d="M512.542 226.438H506.068V217.807H512.542V226.438Z" fill="#84B0F4"/>
<path d="M523.276 226.438H516.802V217.807H523.276V226.438Z" fill="#84B0F4"/>
<path d="M535.115 226.438H528.641V217.807H535.115V226.438Z" fill="#84B0F4"/>
<path d="M590.839 168.948H585.474V156.958H590.839V168.948Z" fill="#84B0F4"/>
<path d="M599.839 168.948H594.474V156.958H599.839V168.948Z" fill="#84B0F4"/>
<path d="M608.839 168.948H603.469V156.958H608.839V168.948Z" fill="#84B0F4"/>
<path d="M617.833 168.948H612.464V156.958H617.833V168.948Z" fill="#84B0F4"/>
<path d="M590.839 186.828H585.474V174.839H590.839V186.828Z" fill="#84B0F4"/>
<path d="M599.839 186.828H594.474V174.839H599.839V186.828Z" fill="#84B0F4"/>
<path d="M608.839 186.828H603.469V174.839H608.839V186.828Z" fill="#84B0F4"/>
<path d="M617.833 186.828H612.464V174.839H617.833V186.828Z" fill="#84B0F4"/>
<path d="M590.839 204.708H585.474V192.719H590.839V204.708Z" fill="#84B0F4"/>
<path d="M599.839 204.708H594.474V192.719H599.839V204.708Z" fill="#84B0F4"/>
<path d="M608.839 204.708H603.469V192.719H608.839V204.708Z" fill="#84B0F4"/>
<path d="M617.833 204.708H612.464V192.719H617.833V204.708Z" fill="#84B0F4"/>
<path d="M590.839 222.588H585.474V210.599H590.839V222.588Z" fill="#84B0F4"/>
<path d="M599.839 222.588H594.474V210.599H599.839V222.588Z" fill="#84B0F4"/>
<path d="M608.839 222.588H603.469V210.599H608.839V222.588Z" fill="#84B0F4"/>
<path d="M617.833 222.588H612.464V210.599H617.833V222.588Z" fill="#84B0F4"/>
<path d="M657.141 143.599H622.729V139.177H657.141V143.599Z" fill="#84B0F4"/>
<path d="M657.141 153.693H622.729V149.276H657.141V153.693Z" fill="#84B0F4"/>
<path d="M657.141 163.792H622.729V159.375H657.141V163.792Z" fill="#84B0F4"/>
<path d="M657.141 173.891H622.729V169.474H657.141V173.891Z" fill="#84B0F4"/>
<path d="M657.141 183.984H622.729V179.568H657.141V183.984Z" fill="#84B0F4"/>
<path d="M657.141 194.083H622.729V189.667H657.141V194.083Z" fill="#84B0F4"/>
<path d="M657.141 204.182H622.729V199.766H657.141V204.182Z" fill="#84B0F4"/>
<path d="M657.141 214.281H622.729V209.865H657.141V214.281Z" fill="#84B0F4"/>
<path d="M657.141 224.375H622.729V219.964H657.141V224.375Z" fill="#84B0F4"/>
<path d="M669.771 222.589H661.88V212.073H669.771V222.589Z" fill="#84B0F4"/>
<path d="M470.979 191.234C470.422 199.531 462.552 206.276 452.172 206.276C441.781 206.276 433.365 199.536 433.365 191.234C433.365 181.172 441.781 158.271 452.172 158.271C462.552 158.271 471.573 182.271 470.979 191.234Z" fill="#568D2D"/>
<path d="M457.229 202.437C446.838 202.437 438.422 195.703 438.422 187.396C438.422 180.094 442.854 166.026 449.26 158.865C440.255 162.521 433.365 182.125 433.365 191.234C433.365 199.536 441.781 206.276 452.172 206.276C458.385 206.276 463.698 203.854 467.083 200.135C464.25 201.588 460.901 202.437 457.229 202.437Z" fill="#4A742B"/>
<path d="M460.24 195.62L460.021 195.708L460.016 195.719C460.016 195.719 459.953 195.87 459.839 196.13C459.781 196.26 459.719 196.417 459.641 196.599C459.563 196.776 459.443 196.969 459.323 197.182C459.26 197.292 459.198 197.401 459.141 197.516C459.068 197.63 458.979 197.745 458.901 197.865C458.734 198.094 458.578 198.349 458.359 198.583C458.146 198.823 457.953 199.083 457.703 199.313C457.469 199.557 457.229 199.797 456.953 200.016C456.818 200.13 456.688 200.25 456.552 200.354C456.412 200.464 456.271 200.563 456.13 200.672C455.865 200.885 455.557 201.063 455.281 201.25C454.99 201.422 454.719 201.599 454.438 201.745C454.167 201.891 453.906 202.031 453.651 202.146C453.453 202.24 453.266 202.323 453.094 202.396L452.682 196.135C452.672 195.938 452.469 195.766 452.208 195.755C451.932 195.745 451.693 195.917 451.677 196.135L451.443 199.729H451.438C451.292 199.724 451.12 199.682 450.938 199.651C450.76 199.604 450.563 199.563 450.359 199.484C450.156 199.417 449.958 199.313 449.745 199.214C449.641 199.156 449.547 199.094 449.448 199.037C449.339 198.969 449.234 198.912 449.146 198.833C448.958 198.688 448.755 198.537 448.594 198.365L448.333 198.109L447.885 197.557L447.698 197.276C447.589 197.083 447.443 196.917 447.365 196.729C447.271 196.552 447.182 196.375 447.104 196.219C447.016 196.063 446.969 195.912 446.917 195.776C446.865 195.646 446.823 195.531 446.781 195.432C446.703 195.24 446.662 195.13 446.662 195.13L446.656 195.12L446.458 195.026L446.323 195.188C446.323 195.188 446.349 195.302 446.401 195.505C446.427 195.604 446.464 195.724 446.495 195.87C446.537 196.01 446.563 196.172 446.635 196.344C446.693 196.51 446.76 196.698 446.833 196.891C446.896 197.089 447.016 197.287 447.109 197.495C447.162 197.604 447.219 197.703 447.271 197.818C447.339 197.917 447.406 198.026 447.474 198.13C447.542 198.234 447.609 198.344 447.682 198.448L447.932 198.755C448.094 198.964 448.297 199.151 448.5 199.344C448.594 199.438 448.703 199.526 448.818 199.604C448.927 199.688 449.037 199.771 449.151 199.849C449.391 199.99 449.615 200.141 449.865 200.245C450.099 200.365 450.349 200.438 450.573 200.521C450.807 200.583 451.021 200.651 451.219 200.677L451.38 200.703L449.594 227.938H454.771L453.162 203.359C453.448 203.224 453.807 203.057 454.203 202.839C454.464 202.703 454.724 202.537 455.01 202.37C455.292 202.198 455.568 202 455.859 201.797C456.13 201.583 456.443 201.385 456.708 201.141C456.849 201.026 456.99 200.906 457.125 200.787C457.26 200.667 457.385 200.537 457.516 200.412C457.781 200.167 458.016 199.896 458.25 199.63C458.495 199.375 458.677 199.094 458.875 198.839C459.078 198.578 459.224 198.302 459.38 198.057C459.448 197.927 459.531 197.807 459.594 197.688C459.651 197.563 459.708 197.443 459.76 197.333C459.865 197.104 459.974 196.896 460.042 196.708C460.104 196.521 460.162 196.349 460.208 196.219C460.302 195.943 460.354 195.792 460.354 195.792L460.24 195.62Z" fill="#784824"/>
<path d="M494.74 199.297C494.354 205.021 488.922 209.682 481.745 209.682C474.568 209.682 468.755 205.037 468.755 199.297C468.755 192.344 474.568 176.526 481.745 176.526C488.922 176.526 495.151 193.104 494.74 199.297Z" fill="#458E30"/>
<path d="M485.24 207.037C478.068 207.037 472.245 202.38 472.245 196.646C472.245 191.604 475.312 181.885 479.734 176.932C473.51 179.458 468.755 193.01 468.755 199.297C468.755 205.037 474.568 209.682 481.745 209.682C486.036 209.682 489.708 208.01 492.047 205.443C490.094 206.453 487.776 207.037 485.24 207.037Z" fill="#386C2D"/>
<path d="M487.323 202.323L487.172 202.385L487.167 202.391C487.167 202.391 487.125 202.495 487.047 202.677C487.005 202.766 486.958 202.875 486.906 203C486.854 203.125 486.766 203.255 486.682 203.406L486.557 203.635L486.396 203.87C486.276 204.037 486.172 204.208 486.021 204.37C485.875 204.537 485.74 204.719 485.568 204.875C485.406 205.042 485.234 205.208 485.052 205.365L484.771 205.599L484.484 205.813C484.297 205.964 484.083 206.083 483.896 206.214C483.698 206.333 483.505 206.453 483.312 206.557C483.125 206.656 482.943 206.75 482.766 206.833C482.63 206.896 482.505 206.958 482.385 207.005L482.099 202.682C482.094 202.542 481.953 202.422 481.771 202.417C481.578 202.412 481.417 202.531 481.406 202.682L481.245 205.167H481.24C481.141 205.156 481.026 205.13 480.896 205.109C480.771 205.078 480.635 205.047 480.495 204.99C480.354 204.948 480.219 204.875 480.073 204.807L479.859 204.682L479.661 204.542C479.526 204.443 479.391 204.344 479.276 204.219L479.094 204.047L478.937 203.854L478.786 203.667L478.661 203.469C478.578 203.339 478.479 203.219 478.427 203.094C478.359 202.964 478.302 202.849 478.25 202.74C478.187 202.63 478.156 202.526 478.115 202.432L478.021 202.198C477.969 202.063 477.943 201.99 477.943 201.99L477.937 201.979L477.802 201.917L477.708 202.026C477.708 202.026 477.729 202.104 477.76 202.245L477.828 202.495C477.849 202.594 477.875 202.703 477.922 202.823C477.963 202.938 478.01 203.068 478.062 203.203C478.104 203.339 478.182 203.474 478.25 203.62L478.359 203.844L478.5 204.057L478.646 204.276L478.823 204.49C478.932 204.635 479.068 204.771 479.213 204.896L479.427 205.078L479.661 205.25C479.828 205.344 479.979 205.448 480.156 205.516C480.312 205.604 480.484 205.656 480.641 205.708C480.802 205.75 480.953 205.797 481.088 205.823L481.203 205.839L479.969 224.651H483.542L482.432 207.672C482.625 207.583 482.875 207.464 483.151 207.313C483.328 207.214 483.51 207.104 483.708 206.984C483.901 206.87 484.094 206.729 484.297 206.594C484.484 206.443 484.698 206.307 484.88 206.141L485.172 205.891L485.437 205.635C485.625 205.464 485.786 205.276 485.943 205.099C486.109 204.917 486.24 204.724 486.375 204.547C486.516 204.37 486.615 204.177 486.729 204.01L486.87 203.75L486.99 203.51C487.062 203.349 487.135 203.208 487.182 203.078C487.229 202.948 487.271 202.828 487.297 202.74C487.365 202.547 487.396 202.443 487.396 202.443L487.323 202.323Z" fill="#784824"/>
<path d="M357 264C357 264 498.857 165 646 264H357Z" fill="#335E13"/>
<path d="M438 287C438 287 637.771 147.5 845 287H438Z" fill="#396A15"/>
<path d="M137 259C137 259 268.544 166.75 405 259H137Z" fill="#457522"/>
<path d="M-17 259C-17 259 106.7 175.75 235 259H-17Z" fill="#5D8E3A"/>
<path d="M589 283C589 283 726.435 188.5 869 283H589Z" fill="#396A15"/>
<path d="M130.5 253.5C130.5 253.5 250 139.5 474 278L130.5 253.5Z" fill="#457522"/>
<path d="M170 285C170 285 424.5 158.5 502 285H170Z" fill="#4B7F25"/>
<path d="M-105 299.134C-105 299.134 147.173 95.3768 403 304L-105 299.134Z" fill="#5D8E3A"/>
<path d="M390.88 172.109C389.802 192.271 374.505 208.667 354.302 208.667C334.104 208.667 317.729 192.302 317.729 172.109C317.729 147.656 334.104 92 354.302 92C374.505 92 392.042 150.333 390.88 172.109Z" fill="#64A336"/>
<path d="M364.135 198.594C343.937 198.594 327.562 182.224 327.562 162.031C327.562 144.286 336.193 110.104 348.646 92.6875C331.13 101.568 317.729 149.234 317.729 171.359C317.729 191.552 334.104 207.917 354.302 207.917C366.396 207.917 376.724 202.042 383.307 193C377.802 196.536 371.281 198.594 364.135 198.594Z" fill="#558235"/>
<path d="M370 182.776C369.828 182.708 369.635 182.807 369.573 182.984L369.568 183.016C369.568 183.016 369.443 183.375 369.224 184.01C369.115 184.328 368.984 184.708 368.833 185.146C368.687 185.589 368.437 186.052 368.213 186.578C368.099 186.833 367.974 187.109 367.849 187.385C367.724 187.661 367.547 187.932 367.396 188.219C367.062 188.781 366.766 189.401 366.344 189.974C365.937 190.557 365.557 191.187 365.068 191.75C364.604 192.333 364.135 192.927 363.604 193.464C363.344 193.734 363.099 194.021 362.828 194.281C362.552 194.542 362.281 194.792 362.01 195.047C361.49 195.568 360.896 196 360.359 196.458C359.797 196.88 359.26 197.302 358.719 197.656C358.182 198.021 357.677 198.354 357.187 198.635C356.802 198.865 356.443 199.068 356.109 199.245L355.307 184.026C355.281 183.536 354.885 183.125 354.38 183.099C353.838 183.068 353.38 183.49 353.354 184.026L352.896 192.766L352.891 192.76C352.599 192.74 352.271 192.651 351.911 192.573C351.562 192.453 351.172 192.354 350.786 192.161C350.385 192.005 350.005 191.74 349.594 191.505C349.396 191.375 349.208 191.214 349.005 191.068C348.807 190.922 348.604 190.766 348.427 190.578C348.057 190.224 347.672 189.865 347.349 189.437L346.844 188.823C346.698 188.599 346.552 188.375 346.406 188.151C346.26 187.927 346.115 187.708 345.974 187.49C345.849 187.26 345.729 187.026 345.609 186.802C345.391 186.339 345.115 185.917 344.963 185.469C344.781 185.026 344.615 184.615 344.458 184.229C344.286 183.849 344.198 183.474 344.088 183.156C343.984 182.828 343.896 182.547 343.823 182.312C343.682 181.849 343.599 181.583 343.599 181.583L343.588 181.552C343.536 181.391 343.37 181.292 343.198 181.328C343.016 181.365 342.901 181.542 342.932 181.724C342.932 181.724 342.99 182.005 343.094 182.495C343.141 182.734 343.198 183.036 343.266 183.375C343.344 183.719 343.401 184.109 343.536 184.521C343.656 184.937 343.792 185.385 343.927 185.859C344.047 186.344 344.281 186.823 344.469 187.333C344.573 187.589 344.677 187.844 344.781 188.109C344.911 188.354 345.042 188.615 345.177 188.87C345.307 189.13 345.443 189.385 345.583 189.651L346.073 190.396C346.385 190.906 346.776 191.365 347.167 191.818C347.349 192.052 347.568 192.26 347.786 192.458C348.005 192.661 348.213 192.87 348.437 193.052C348.901 193.401 349.338 193.76 349.823 194.01C350.286 194.302 350.76 194.495 351.198 194.687C351.656 194.839 352.073 194.995 352.458 195.068C352.568 195.094 352.672 195.115 352.766 195.135L349.302 261.328H359.359L356.229 201.589C356.797 201.26 357.49 200.844 358.26 200.307C358.76 199.979 359.281 199.589 359.823 199.172C360.37 198.76 360.911 198.281 361.479 197.792C362.016 197.276 362.609 196.781 363.13 196.193C363.401 195.906 363.672 195.62 363.937 195.333C364.203 195.036 364.448 194.724 364.703 194.417C365.224 193.818 365.677 193.167 366.125 192.526C366.594 191.901 366.958 191.219 367.344 190.589C367.745 189.964 368.016 189.297 368.323 188.687C368.469 188.38 368.62 188.094 368.74 187.797C368.854 187.495 368.963 187.208 369.068 186.932C369.266 186.375 369.484 185.88 369.615 185.422C369.734 184.958 369.849 184.552 369.937 184.224C370.12 183.562 370.219 183.182 370.219 183.182C370.266 183.01 370.172 182.828 370 182.776Z" fill="#784824"/>
<path d="M422.286 198.943C421.542 212.875 410.979 224.203 397.021 224.203C383.068 224.203 371.755 212.896 371.755 198.943C371.755 182.057 383.068 143.609 397.021 143.609C410.979 143.609 423.088 183.906 422.286 198.943Z" fill="#509B3A"/>
<path d="M403.818 217.761C389.859 217.761 378.547 206.453 378.547 192.51C378.547 180.245 384.51 156.63 393.115 144.604C381.016 150.74 371.755 183.667 371.755 198.943C371.755 212.896 383.068 224.203 397.021 224.203C405.37 224.203 412.505 220.141 417.052 213.896C413.25 216.344 408.745 217.761 403.818 217.761Z" fill="#447B38"/>
<path d="M407.87 206.318C407.745 206.276 407.609 206.339 407.568 206.464L407.562 206.484C407.562 206.484 407.474 206.729 407.323 207.167C407.255 207.385 407.161 207.651 407.062 207.953C406.953 208.255 406.786 208.583 406.635 208.943C406.552 209.12 406.464 209.307 406.375 209.505C406.286 209.693 406.172 209.88 406.062 210.078C405.833 210.464 405.63 210.896 405.339 211.292C405.057 211.693 404.797 212.125 404.458 212.516C404.135 212.917 403.818 213.323 403.448 213.698C403.266 213.885 403.094 214.083 402.911 214.266C402.719 214.443 402.531 214.615 402.344 214.792C401.984 215.156 401.573 215.448 401.208 215.771C400.812 216.062 400.443 216.349 400.068 216.594C399.703 216.844 399.354 217.078 399.016 217.271C398.745 217.432 398.495 217.568 398.266 217.693L397.714 207.177C397.693 206.839 397.422 206.557 397.073 206.536C396.703 206.521 396.385 206.807 396.365 207.177L396.047 213.214H396.036C395.844 213.203 395.615 213.135 395.37 213.083C395.13 213.005 394.859 212.932 394.594 212.797C394.312 212.693 394.057 212.51 393.766 212.349C393.625 212.25 393.5 212.146 393.365 212.042C393.224 211.943 393.083 211.839 392.958 211.703C392.708 211.464 392.437 211.214 392.219 210.917L391.865 210.49C391.766 210.339 391.667 210.182 391.562 210.031C391.464 209.875 391.359 209.724 391.266 209.573C391.182 209.411 391.094 209.25 391.016 209.099C390.859 208.776 390.672 208.49 390.568 208.177C390.443 207.87 390.328 207.583 390.219 207.323C390.099 207.057 390.036 206.797 389.964 206.578C389.896 206.354 389.833 206.156 389.781 206C389.687 205.677 389.625 205.49 389.625 205.49L389.62 205.474C389.583 205.359 389.474 205.292 389.354 205.318C389.224 205.339 389.141 205.464 389.167 205.589C389.167 205.589 389.208 205.781 389.276 206.12C389.307 206.292 389.354 206.495 389.401 206.729C389.448 206.964 389.49 207.24 389.583 207.521C389.667 207.807 389.76 208.12 389.854 208.448C389.932 208.781 390.094 209.109 390.229 209.464C390.302 209.641 390.37 209.818 390.443 210C390.531 210.172 390.62 210.344 390.714 210.526C390.807 210.703 390.901 210.885 390.995 211.062L391.333 211.578C391.552 211.932 391.818 212.25 392.094 212.562C392.219 212.729 392.365 212.87 392.521 213.005C392.672 213.146 392.812 213.286 392.969 213.417C393.292 213.656 393.594 213.901 393.927 214.078C394.245 214.276 394.573 214.411 394.875 214.542C395.193 214.651 395.479 214.755 395.75 214.807L395.964 214.849L393.562 260.578H400.51L398.349 219.307C398.745 219.089 399.224 218.797 399.76 218.427C400.099 218.203 400.458 217.927 400.833 217.641C401.214 217.354 401.589 217.026 401.979 216.687C402.349 216.328 402.76 215.99 403.12 215.583C403.307 215.385 403.49 215.187 403.677 214.99C403.865 214.786 404.031 214.568 404.203 214.359C404.562 213.943 404.875 213.49 405.187 213.052C405.51 212.62 405.76 212.151 406.026 211.714C406.302 211.281 406.49 210.823 406.703 210.401C406.802 210.187 406.911 209.99 406.99 209.786C407.068 209.578 407.146 209.38 407.219 209.187C407.354 208.802 407.51 208.464 407.594 208.141C407.682 207.823 407.755 207.547 407.823 207.318C407.948 206.859 408.016 206.599 408.016 206.599C408.047 206.479 407.984 206.354 407.87 206.318Z" fill="#784824"/>
<path d="M643.453 163.74C642.281 185.625 625.677 203.417 603.75 203.417C581.823 203.417 564.052 185.651 564.052 163.74C564.052 137.193 581.823 76.7812 603.75 76.7812C625.677 76.7812 644.714 140.099 643.453 163.74Z" fill="#4CA336"/>
<path d="M614.427 193.297C592.505 193.297 574.729 175.531 574.729 153.62C574.729 134.354 584.094 97.2499 597.615 78.3489C578.604 87.9895 564.052 139.724 564.052 163.74C564.052 185.651 581.823 203.417 603.75 203.417C616.875 203.417 628.089 197.036 635.229 187.229C629.26 191.068 622.177 193.297 614.427 193.297Z" fill="#398326"/>
<path d="M620.792 175.318C620.599 175.245 620.396 175.349 620.328 175.542L620.313 175.578C620.313 175.578 620.182 175.969 619.948 176.656C619.833 177 619.688 177.411 619.526 177.891C619.359 178.364 619.094 178.875 618.854 179.443C618.724 179.719 618.589 180.016 618.458 180.318C618.313 180.625 618.13 180.917 617.964 181.224C617.604 181.838 617.276 182.51 616.823 183.13C616.375 183.766 615.964 184.443 615.438 185.057C614.938 185.693 614.422 186.333 613.844 186.911C613.563 187.208 613.292 187.516 613.005 187.802C612.708 188.083 612.411 188.364 612.125 188.635C611.552 189.203 610.906 189.672 610.328 190.172C609.714 190.63 609.13 191.078 608.542 191.469C607.964 191.859 607.411 192.224 606.885 192.526C606.469 192.781 606.073 193 605.708 193.198L604.844 176.672C604.813 176.141 604.385 175.698 603.839 175.672C603.25 175.635 602.75 176.088 602.719 176.672L602.224 186.156H602.214C601.896 186.13 601.547 186.036 601.156 185.953C600.781 185.823 600.354 185.713 599.938 185.5C599.5 185.333 599.094 185.052 598.641 184.792C598.422 184.646 598.219 184.479 598 184.318C597.786 184.156 597.563 183.989 597.375 183.786C596.969 183.401 596.552 183.01 596.203 182.547L595.656 181.88C595.495 181.635 595.339 181.391 595.177 181.151C595.021 180.911 594.865 180.672 594.708 180.432C594.578 180.177 594.448 179.932 594.318 179.682C594.078 179.182 593.781 178.724 593.609 178.239C593.411 177.766 593.234 177.312 593.068 176.891C592.88 176.484 592.776 176.078 592.667 175.724C592.552 175.375 592.458 175.068 592.385 174.818C592.219 174.312 592.13 174.021 592.13 174.021L592.125 173.989C592.068 173.812 591.885 173.703 591.698 173.745C591.5 173.781 591.375 173.979 591.411 174.172C591.411 174.172 591.479 174.479 591.578 175.005C591.635 175.276 591.703 175.599 591.776 175.969C591.859 176.338 591.922 176.766 592.068 177.208C592.198 177.661 592.339 178.151 592.49 178.667C592.62 179.193 592.875 179.708 593.078 180.26C593.188 180.536 593.302 180.818 593.411 181.104C593.557 181.375 593.698 181.651 593.844 181.932C593.99 182.213 594.135 182.489 594.281 182.776L594.818 183.583C595.156 184.141 595.583 184.635 596.005 185.13C596.203 185.391 596.443 185.609 596.682 185.828C596.917 186.047 597.141 186.271 597.38 186.474C597.891 186.844 598.365 187.239 598.891 187.51C599.385 187.823 599.911 188.031 600.38 188.245C600.88 188.411 601.333 188.578 601.75 188.656C601.87 188.693 601.979 188.703 602.089 188.729L598.323 260.578H609.24L605.844 195.734C606.458 195.385 607.214 194.927 608.047 194.349C608.589 193.989 609.156 193.562 609.745 193.109C610.333 192.661 610.927 192.146 611.547 191.62C612.125 191.052 612.766 190.516 613.333 189.88C613.625 189.568 613.917 189.26 614.214 188.943C614.5 188.625 614.766 188.281 615.042 187.953C615.609 187.302 616.104 186.594 616.583 185.901C617.094 185.224 617.484 184.484 617.901 183.792C618.344 183.12 618.641 182.391 618.969 181.739C619.12 181.401 619.292 181.088 619.427 180.766C619.547 180.437 619.667 180.13 619.776 179.828C619.99 179.224 620.229 178.687 620.37 178.187C620.5 177.682 620.62 177.245 620.719 176.885C620.917 176.172 621.031 175.755 621.031 175.755C621.078 175.573 620.979 175.375 620.792 175.318Z" fill="#784824"/>
<path d="M699.25 221.25C698.849 228.75 693.156 234.849 685.646 234.849C678.13 234.849 672.036 228.76 672.036 221.25C672.036 212.151 678.13 191.448 685.646 191.448C693.156 191.448 699.688 213.151 699.25 221.25Z" fill="#94D32E"/>
<path d="M689.302 231.38C681.792 231.38 675.698 225.292 675.698 217.781C675.698 211.177 678.906 198.464 683.542 191.984C677.026 195.286 672.036 213.016 672.036 221.25C672.036 228.76 678.13 234.849 685.646 234.849C690.141 234.849 693.984 232.661 696.432 229.302C694.385 230.615 691.958 231.38 689.302 231.38Z" fill="#83AF30"/>
<path d="M679.609 193.682C678.802 208.797 667.328 221.094 652.182 221.094C637.042 221.094 624.76 208.823 624.76 193.682C624.76 175.349 637.042 133.615 652.182 133.615C667.328 133.615 680.479 177.359 679.609 193.682Z" fill="#509B3A"/>
<path d="M659.562 214.104C644.417 214.104 632.135 201.833 632.135 186.693C632.135 173.385 638.604 147.755 647.948 134.698C634.812 141.354 624.76 177.094 624.76 193.682C624.76 208.823 637.042 221.094 652.182 221.094C661.25 221.094 668.995 216.688 673.932 209.912C669.802 212.563 664.911 214.104 659.562 214.104Z" fill="#447B38"/>
<path d="M663.958 201.677C663.823 201.63 663.677 201.703 663.63 201.839L663.625 201.865C663.625 201.865 663.531 202.13 663.37 202.604C663.292 202.844 663.193 203.13 663.078 203.464C662.969 203.786 662.786 204.141 662.615 204.531C662.531 204.724 662.437 204.927 662.344 205.141C662.245 205.344 662.12 205.552 662 205.766C661.755 206.182 661.526 206.651 661.214 207.083C660.906 207.516 660.62 207.99 660.255 208.411C659.906 208.844 659.557 209.292 659.161 209.693C658.964 209.896 658.781 210.109 658.573 210.307C658.375 210.5 658.167 210.693 657.969 210.88C657.568 211.276 657.125 211.599 656.729 211.943C656.302 212.255 655.901 212.573 655.495 212.839C655.094 213.109 654.714 213.359 654.349 213.568C654.057 213.745 653.792 213.896 653.536 214.031L652.937 202.62C652.911 202.25 652.625 201.943 652.245 201.922C651.839 201.901 651.495 202.214 651.469 202.62L651.125 209.172H651.12C650.906 209.156 650.661 209.083 650.391 209.031C650.13 208.943 649.839 208.865 649.547 208.719C649.245 208.604 648.964 208.401 648.651 208.229C648.5 208.13 648.359 208.01 648.214 207.896C648.068 207.786 647.911 207.677 647.781 207.531C647.5 207.266 647.208 207 646.969 206.677L646.589 206.214C646.479 206.047 646.37 205.875 646.26 205.714C646.156 205.547 646.042 205.38 645.937 205.214C645.849 205.042 645.755 204.87 645.667 204.703C645.5 204.354 645.297 204.036 645.177 203.703C645.047 203.37 644.917 203.057 644.797 202.771C644.677 202.49 644.604 202.208 644.526 201.964C644.448 201.724 644.385 201.51 644.328 201.339C644.219 200.99 644.156 200.786 644.156 200.786L644.151 200.766C644.109 200.646 643.984 200.568 643.859 200.594C643.724 200.62 643.63 200.755 643.661 200.891C643.661 200.891 643.703 201.104 643.776 201.469C643.818 201.656 643.865 201.875 643.911 202.13C643.969 202.391 644.01 202.682 644.109 202.99C644.198 203.297 644.297 203.635 644.406 203.995C644.49 204.359 644.672 204.714 644.812 205.099C644.891 205.286 644.964 205.484 645.042 205.677C645.141 205.87 645.24 206.057 645.344 206.25C645.443 206.443 645.542 206.641 645.646 206.833L646.016 207.396C646.25 207.776 646.536 208.12 646.833 208.464C646.969 208.635 647.135 208.792 647.302 208.943C647.464 209.094 647.615 209.25 647.781 209.391C648.135 209.646 648.464 209.917 648.828 210.104C649.167 210.323 649.531 210.464 649.854 210.609C650.198 210.729 650.51 210.844 650.802 210.896L651.036 210.943L648.432 260.578H655.974L653.625 215.781C654.052 215.542 654.573 215.229 655.156 214.828C655.526 214.583 655.917 214.286 656.323 213.974C656.734 213.661 657.141 213.302 657.562 212.943C657.969 212.552 658.411 212.182 658.807 211.745C659.005 211.526 659.208 211.313 659.411 211.094C659.609 210.875 659.792 210.641 659.979 210.411C660.375 209.964 660.714 209.469 661.047 208.99C661.401 208.526 661.672 208.01 661.958 207.536C662.26 207.068 662.469 206.568 662.698 206.115C662.802 205.885 662.917 205.667 663.005 205.448C663.094 205.224 663.172 205.005 663.255 204.797C663.401 204.38 663.568 204.01 663.661 203.661C663.76 203.318 663.844 203.01 663.906 202.771C664.042 202.271 664.12 201.99 664.12 201.99C664.151 201.859 664.083 201.724 663.958 201.677Z" fill="#784824"/>
</g>
<defs>
<clipPath id="clip0_303_1437">
<rect width="673" height="287" fill="white"/>
</clipPath>
</defs>
</svg>
